<svg width="61" height="60" viewBox="0 0 61 60" xmlns="http://www.w3.org/2000/svg">
<path d="M40.8091 43.144C40.8571 42.76 40.8571 42.424 40.8571 42.04C40.8571 39.496 38.9371 35.32 36.8251 31.576C34.6651 27.736 32.3131 24.328 31.8811 23.656C31.2091 22.696 29.6731 22.696 29.0011 23.656C28.5211 24.328 26.2171 27.736 24.0571 31.576C21.9451 35.32 20.0251 39.496 20.0251 42.04C20.0251 42.424 20.0251 42.76 20.0731 43.144C18.9211 41.32 18.2491 39.16 18.2491 36.808C18.2491 35.512 18.7771 33.688 19.5931 31.624C21.9931 25.48 27.1771 17.032 30.4411 12.136C33.7051 17.032 38.8891 25.48 41.2891 31.624C42.1051 33.688 42.5851 35.512 42.5851 36.808C42.5851 39.16 41.9131 41.32 40.8091 43.144ZM35.5771 46.648C35.1931 44.392 32.9371 40.84 31.8811 39.304C31.2091 38.344 29.6731 38.344 29.0011 39.304C27.9451 40.84 25.6411 44.392 25.3051 46.648C24.2011 45.448 23.4811 43.816 23.4811 42.04C23.4811 40.024 25.6411 35.656 28.0411 31.624C28.8571 30.28 29.6731 28.984 30.4411 27.784C31.2091 28.984 32.0251 30.28 32.7931 31.624C35.1931 35.656 37.4011 40.024 37.4011 42.04C37.4011 43.816 36.6811 45.448 35.5771 46.648ZM31.8811 8.008C31.2091 7.096 29.6731 7.096 29.0011 8.008C27.5611 10.12 14.7931 28.84 14.7931 36.808C14.7931 40.552 16.0891 43.96 18.2491 46.648C20.9371 49.96 24.8731 52.168 29.3851 52.456C29.7211 52.456 30.0571 52.504 30.4411 52.504C30.7771 52.504 31.1611 52.456 31.4971 52.456C35.9611 52.168 39.9451 49.96 42.5851 46.648C44.7931 43.96 46.0891 40.552 46.0891 36.808C46.0891 28.84 33.3211 10.12 31.8811 8.008Z"/>
</svg>
