<svg width="61" height="60" viewBox="0 0 61 60" xmlns="http://www.w3.org/2000/svg">
<path d="M32.3611 45.496H20.7931L12.8731 39.784V39.64L21.8011 28.648L36.3931 40.552L32.4091 45.496H32.3611ZM50.1211 45.496H36.8731L51.4651 27.544C52.0411 26.824 51.9451 25.72 51.2251 25.096L33.8971 11.032C33.8491 10.984 33.8011 10.984 33.7051 10.936C33.4651 10.792 33.2251 10.696 32.9371 10.696C32.8411 10.648 32.7451 10.648 32.6491 10.648C32.1691 10.696 31.7371 10.936 31.4491 11.272L26.3131 17.608L12.8731 34.168L8.93708 38.968C8.64908 39.352 8.50508 39.832 8.55308 40.312C8.64908 40.744 8.88908 41.176 9.27308 41.464L12.8731 44.056L19.2091 48.616C19.4971 48.856 19.8811 48.952 20.2171 48.952H32.3611H33.2251H50.1211C51.0811 48.952 51.8491 48.184 51.8491 47.224C51.8491 46.264 51.0811 45.496 50.1211 45.496Z"/>
</svg>
