<svg width="60" height="60" viewBox="0 0 60 60" xmlns="http://www.w3.org/2000/svg">
<path d="M50.8556 45.88C49.8956 45.88 49.1276 46.648 49.1276 47.608V48.904H46.9196C45.9596 48.904 45.1916 49.72 45.1916 50.68C45.1916 51.64 45.9596 52.408 46.9196 52.408H50.8556C51.8156 52.408 52.5836 51.64 52.5836 50.68V47.608C52.5836 46.648 51.8156 45.88 50.8556 45.88ZM50.8556 18.04C49.8956 18.04 49.1276 18.808 49.1276 19.768V26.728C49.1276 27.688 49.8956 28.504 50.8556 28.504C51.8156 28.504 52.5836 27.688 52.5836 26.728V19.768C52.5836 18.808 51.8156 18.04 50.8556 18.04ZM50.8556 31.96C49.8956 31.96 49.1276 32.728 49.1276 33.688V40.648C49.1276 41.608 49.8956 42.376 50.8556 42.376C51.8156 42.376 52.5836 41.608 52.5836 40.648V33.688C52.5836 32.728 51.8156 31.96 50.8556 31.96ZM49.3676 16.072C50.3276 16.072 51.0956 15.304 51.0956 14.344C51.0956 13.384 50.3276 12.616 49.3676 12.616H47.1596V8.92C47.1596 7.96 46.3916 7.192 45.4316 7.192H9.14363C8.18362 7.192 7.41563 7.96 7.41563 8.92V45.16C7.41563 46.12 8.18362 46.936 9.14363 46.936H12.8396V48.184C12.8396 49.192 13.6556 50.008 14.6156 50.008C15.5756 50.008 16.3436 49.192 16.3436 48.184V41.272C16.3436 40.312 15.5756 39.496 14.6156 39.496C13.6556 39.496 12.8396 40.312 12.8396 41.272V43.432H10.8716V10.648H43.7036V12.616H42.4076C41.4476 12.616 40.6796 13.384 40.6796 14.344C40.6796 15.304 41.4476 16.072 42.4076 16.072H49.3676ZM14.6156 25.624C13.6556 25.624 12.8396 26.392 12.8396 27.352V34.312C12.8396 35.272 13.6556 36.04 14.6156 36.04C15.5756 36.04 16.3436 35.272 16.3436 34.312V27.352C16.3436 26.392 15.5756 25.624 14.6156 25.624ZM23.3036 14.344C23.3036 13.384 22.4876 12.616 21.5276 12.616H14.6156C13.6556 12.616 12.8396 13.384 12.8396 14.344V20.392C12.8396 21.352 13.6556 22.12 14.6156 22.12C15.5756 22.12 16.3436 21.352 16.3436 20.392V16.072H21.5276C22.4876 16.072 23.3036 15.304 23.3036 14.344ZM40.0076 48.904H33.0476C32.0876 48.904 31.2716 49.72 31.2716 50.68C31.2716 51.64 32.0876 52.408 33.0476 52.408H40.0076C40.9676 52.408 41.7356 51.64 41.7356 50.68C41.7356 49.72 40.9676 48.904 40.0076 48.904ZM26.0876 48.904H19.1276C18.1676 48.904 17.3996 49.72 17.3996 50.68C17.3996 51.64 18.1676 52.408 19.1276 52.408H26.0876C27.0476 52.408 27.8156 51.64 27.8156 50.68C27.8156 49.72 27.0476 48.904 26.0876 48.904ZM37.1756 14.344C37.1756 13.384 36.4076 12.616 35.4476 12.616H28.4876C27.5276 12.616 26.7596 13.384 26.7596 14.344C26.7596 15.304 27.5276 16.072 28.4876 16.072H35.4476C36.4076 16.072 37.1756 15.304 37.1756 14.344Z"/>
</svg>
