<svg width="61" height="60" viewBox="0 0 61 60" xmlns="http://www.w3.org/2000/svg">
<path d="M20.6747 8.056H10.6907C9.73074 8.056 8.96274 8.824 8.96274 9.784V19.768C8.96274 20.728 9.73074 21.496 10.6907 21.496C11.6507 21.496 12.4187 20.728 12.4187 19.768V11.512H20.6747C21.6347 11.512 22.4507 10.744 22.4507 9.784C22.4507 8.824 21.6347 8.056 20.6747 8.056ZM20.6747 48.04H12.4187V39.784C12.4187 38.824 11.6507 38.008 10.6907 38.008C9.73074 38.008 8.96274 38.824 8.96274 39.784V49.816C8.96274 50.776 9.73074 51.544 10.6907 51.544H20.6747C21.6347 51.544 22.4507 50.776 22.4507 49.816C22.4507 48.808 21.6347 48.04 20.6747 48.04ZM50.6747 38.008C49.7147 38.008 48.9467 38.824 48.9467 39.784V48.04H40.6907C39.7307 48.04 38.9627 48.808 38.9627 49.816C38.9627 50.776 39.7307 51.544 40.6907 51.544H50.6747C51.6347 51.544 52.4027 50.776 52.4027 49.816V39.784C52.4027 38.824 51.6347 38.008 50.6747 38.008ZM50.6747 8.056H40.6907C39.7307 8.056 38.9627 8.824 38.9627 9.784C38.9627 10.744 39.7307 11.512 40.6907 11.512H48.9467V19.768C48.9467 20.728 49.7147 21.496 50.6747 21.496C51.6347 21.496 52.4027 20.728 52.4027 19.768V9.784C52.4027 8.824 51.6347 8.056 50.6747 8.056Z"/>
</svg>
