<svg width="61" height="60" viewBox="0 0 61 60" xmlns="http://www.w3.org/2000/svg">
<path d="M14.5949 11.512H22.0349C22.9949 11.512 23.7629 10.744 23.7629 9.784C23.7629 8.824 22.9949 8.056 22.0349 8.056H10.3709C10.1789 8.056 9.93892 8.104 9.69892 8.2C9.31492 8.344 8.93092 8.68 8.78692 9.112C8.69092 9.352 8.64292 9.544 8.64292 9.784V21.448C8.64292 22.408 9.41092 23.176 10.3709 23.176C11.3309 23.176 12.0989 22.408 12.0989 21.448V13.96L21.3149 23.176C21.6509 23.512 22.0829 23.704 22.5629 23.704C22.9949 23.704 23.4269 23.512 23.7629 23.176C24.4349 22.504 24.4349 21.4 23.7629 20.728L14.5949 11.512ZM23.7629 36.376C23.0909 35.704 21.9869 35.704 21.3149 36.376L12.0989 45.544V38.104C12.0989 37.144 11.3309 36.376 10.3709 36.376C9.41092 36.376 8.64292 37.144 8.64292 38.104V49.816C8.64292 50.008 8.69092 50.248 8.78692 50.488C8.93092 50.872 9.31492 51.256 9.69892 51.4C9.93892 51.496 10.1789 51.544 10.3709 51.544H22.0349C22.9949 51.544 23.7629 50.776 23.7629 49.816C23.7629 48.808 22.9949 48.04 22.0349 48.04H14.5949L23.7629 38.824C24.4349 38.152 24.4349 37.048 23.7629 36.376ZM51.9389 9.112C51.7949 8.68 51.4589 8.344 51.0269 8.2C50.7869 8.104 50.5949 8.056 50.3549 8.056H38.6909C37.7309 8.056 36.9629 8.824 36.9629 9.784C36.9629 10.744 37.7309 11.512 38.6909 11.512H46.1789L36.9629 20.728C36.2909 21.4 36.2909 22.504 36.9629 23.176C37.2989 23.512 37.7309 23.704 38.2109 23.704C38.6429 23.704 39.0749 23.512 39.4109 23.176L48.6269 13.96V21.448C48.6269 22.408 49.3949 23.176 50.3549 23.176C51.3149 23.176 52.0829 22.408 52.0829 21.448V9.784C52.0829 9.544 52.0349 9.352 51.9389 9.112ZM50.3549 36.376C49.3949 36.376 48.6269 37.144 48.6269 38.104V45.544L39.4109 36.376C38.7389 35.704 37.6349 35.704 36.9629 36.376C36.2909 37.048 36.2909 38.152 36.9629 38.824L46.1789 48.04H38.6909C37.7309 48.04 36.9629 48.808 36.9629 49.816C36.9629 50.776 37.7309 51.544 38.6909 51.544H50.3549C50.5949 51.544 50.7869 51.496 51.0269 51.4C51.4589 51.256 51.7949 50.872 51.9389 50.488C52.0349 50.248 52.0829 50.008 52.0829 49.816V38.104C52.0829 37.144 51.3149 36.376 50.3549 36.376Z"/>
</svg>
