<svg width="61" height="60" viewBox="0 0 61 60" xmlns="http://www.w3.org/2000/svg">
<path d="M22.2183 8.632C21.2583 8.632 20.4903 9.448 20.4903 10.408V17.848L11.2743 8.632C10.6023 7.96 9.49829 7.96 8.82629 8.632C8.15429 9.352 8.15429 10.408 8.82629 11.128L18.0423 20.296H10.5543C9.59429 20.296 8.82629 21.064 8.82629 22.024C8.82629 22.984 9.59429 23.8 10.5543 23.8H22.2183C22.4583 23.8 22.6983 23.752 22.8903 23.656C23.3223 23.464 23.6583 23.128 23.8503 22.696C23.8983 22.504 23.9463 22.264 23.9463 22.024V10.408C23.9463 9.448 23.1783 8.632 22.2183 8.632ZM37.8663 23.8H49.5303C50.4903 23.8 51.2583 22.984 51.2583 22.024C51.2583 21.064 50.4903 20.296 49.5303 20.296H42.0423L51.2583 11.128C51.9303 10.408 51.9303 9.352 51.2583 8.632C50.5863 7.96 49.4823 7.96 48.8103 8.632L39.5943 17.848V10.408C39.5943 9.448 38.8263 8.632 37.8663 8.632C36.9063 8.632 36.1383 9.448 36.1383 10.408V22.024C36.1383 22.984 36.9063 23.8 37.8663 23.8ZM22.8903 36.088C22.6983 35.992 22.4583 35.944 22.2183 35.944H10.5543C9.59429 35.944 8.82629 36.712 8.82629 37.672C8.82629 38.632 9.59429 39.448 10.5543 39.448H18.0423L8.82629 48.616C8.15429 49.336 8.15429 50.44 8.82629 51.112C9.16229 51.448 9.59429 51.64 10.0743 51.64C10.5063 51.64 10.9383 51.448 11.2743 51.112L20.4903 41.896V49.384C20.4903 50.344 21.2583 51.112 22.2183 51.112C23.1783 51.112 23.9463 50.344 23.9463 49.384V37.672C23.9463 37.48 23.8983 37.24 23.8503 37.048C23.6583 36.616 23.3223 36.28 22.8903 36.088ZM42.1863 39.448H49.5303C50.4903 39.448 51.2583 38.632 51.2583 37.672C51.2583 36.712 50.4903 35.944 49.5303 35.944H37.8663C36.9063 35.944 36.1383 36.712 36.1383 37.672V49.384C36.1383 50.344 36.9063 51.112 37.8663 51.112C38.8263 51.112 39.5943 50.344 39.5943 49.384V41.8L48.8103 51.016C49.1463 51.352 49.5783 51.544 50.0583 51.544C50.4903 51.544 50.9223 51.352 51.2583 51.016C51.9303 50.344 51.9303 49.24 51.2583 48.52L42.1863 39.448Z"/>
</svg>
