<svg width="61" height="60" viewBox="0 0 61 60" xmlns="http://www.w3.org/2000/svg">
<path d="M52.2251 30.472C52.2731 30.328 52.2731 30.232 52.3211 30.088C52.3211 29.992 52.3691 29.896 52.3691 29.8C52.3691 29.704 52.3211 29.608 52.3211 29.512C52.2731 29.368 52.2731 29.272 52.2251 29.128C52.1771 28.984 52.0811 28.84 51.9851 28.744C51.9371 28.696 51.8891 28.648 51.8891 28.6L46.7531 23.368C46.0331 22.696 44.9771 22.696 44.2571 23.368C43.5851 24.04 43.5851 25.144 44.2571 25.816L46.4651 28.072H32.4491V14.056L34.7051 16.264C35.0411 16.6 35.4731 16.744 35.9531 16.744C36.3851 16.744 36.8171 16.6 37.1531 16.264C37.8251 15.544 37.8251 14.488 37.1531 13.768L31.9211 8.632C31.8731 8.632 31.8251 8.584 31.7771 8.536C31.6811 8.44 31.5371 8.344 31.3931 8.296C31.2491 8.248 31.1531 8.248 31.0571 8.2C30.9611 8.2 30.8171 8.152 30.7211 8.152C30.6251 8.152 30.4811 8.2 30.3851 8.2C30.2891 8.248 30.1451 8.248 30.0491 8.296C29.9051 8.344 29.7611 8.44 29.6651 8.536C29.6171 8.584 29.5691 8.632 29.5211 8.632L24.2891 13.768C23.6171 14.44 23.6171 15.544 24.2891 16.264C24.6251 16.6 25.0571 16.744 25.4891 16.744C25.9691 16.744 26.4011 16.6 26.7371 16.264L28.9931 14.056V28.072H14.9771L17.1851 25.816C17.8571 25.144 17.8571 24.04 17.1851 23.368C16.4651 22.696 15.3611 22.696 14.6891 23.368L9.5531 28.6C9.5051 28.648 9.5051 28.696 9.4571 28.744C9.3611 28.84 9.2651 28.984 9.2171 29.128C9.1691 29.272 9.1691 29.368 9.1211 29.464C9.1211 29.56 9.0731 29.704 9.0731 29.8C9.0731 29.896 9.1211 30.04 9.1211 30.136C9.1691 30.232 9.1691 30.328 9.2171 30.472C9.2651 30.616 9.3611 30.76 9.4571 30.856C9.5051 30.904 9.5051 30.952 9.5531 31L14.6891 36.232C15.0731 36.568 15.5051 36.76 15.9371 36.76C16.3691 36.76 16.8491 36.568 17.1851 36.232C17.8571 35.56 17.8571 34.456 17.1851 33.784L14.9771 31.528H28.9931V45.544L26.7371 43.336C26.0171 42.664 24.9611 42.664 24.2891 43.336C23.6171 44.056 23.6171 45.16 24.2891 45.832L29.5211 50.968C29.5691 51.016 29.6171 51.016 29.6651 51.064C29.8091 51.16 29.9051 51.256 30.0491 51.304C30.2891 51.4 30.4811 51.448 30.7211 51.448C30.9611 51.448 31.1531 51.4 31.3931 51.304C31.5371 51.256 31.6331 51.16 31.7771 51.064C31.8251 51.016 31.8731 51.016 31.9211 50.968L37.1531 45.832C37.8251 45.16 37.8251 44.056 37.1531 43.336C36.4811 42.664 35.3771 42.664 34.7051 43.336L32.4491 45.544V31.528H46.4651L44.2571 33.784C43.5851 34.456 43.5851 35.56 44.2571 36.232C44.5931 36.568 45.0731 36.76 45.5051 36.76C45.9371 36.76 46.3691 36.568 46.7531 36.232L51.8891 31C51.8891 30.952 51.9371 30.904 51.9851 30.856C52.0811 30.76 52.1771 30.616 52.2251 30.472Z"/>
</svg>
