<svg width="61" height="60" viewBox="0 0 61 60" xmlns="http://www.w3.org/2000/svg">
<path d="M24.7856 17.272C24.7856 17.608 24.9296 17.896 25.2176 18.04C25.3616 18.136 25.5056 18.136 25.6496 18.136C25.7936 18.136 25.9856 18.088 26.1296 17.992L31.8416 14.2C32.0816 14.008 32.2256 13.768 32.2256 13.48C32.2256 13.144 32.0816 12.904 31.8416 12.712L26.1296 8.92C25.8416 8.728 25.5056 8.728 25.2176 8.872C24.9296 9.016 24.7856 9.304 24.7856 9.64V11.752C21.8096 11.944 19.1216 13.048 16.9616 14.776C13.7936 17.32 11.7296 21.256 11.7296 25.624C11.7296 26.584 12.4976 27.352 13.4576 27.352C14.4176 27.352 15.1856 26.584 15.1856 25.624C15.1856 23.512 15.8576 21.544 16.9616 19.864C18.6416 17.272 21.5216 15.496 24.7856 15.256V17.272ZM45.6176 47.368H23.0096V24.76H45.6176V47.368ZM47.3456 21.256H21.2816C20.3216 21.256 19.5536 22.072 19.5536 23.032V49.144C19.5536 50.104 20.3216 50.872 21.2816 50.872H47.3456C48.3056 50.872 49.0736 50.104 49.0736 49.144V23.032C49.0736 22.072 48.3056 21.256 47.3456 21.256Z"/>
</svg>
