<svg width="61" height="60" viewBox="0 0 61 60" xmlns="http://www.w3.org/2000/svg">
<path d="M36.1457 17.272C36.1457 17.608 35.9537 17.896 35.6657 18.04C35.5697 18.136 35.4257 18.136 35.2817 18.136C35.0897 18.136 34.9457 18.088 34.8017 17.992L29.0417 14.2C28.8017 14.008 28.6577 13.768 28.6577 13.48C28.6577 13.144 28.8017 12.904 29.0417 12.712L34.8017 8.92C35.0417 8.728 35.3777 8.728 35.6657 8.872C35.9537 9.016 36.1457 9.304 36.1457 9.64V11.752C39.0737 11.944 41.8097 13.048 43.9697 14.776C47.1377 17.32 49.1537 21.256 49.1537 25.624C49.1537 26.584 48.3857 27.352 47.4257 27.352C46.4657 27.352 45.6977 26.584 45.6977 25.624C45.6977 23.512 45.0737 21.544 43.9697 19.864C42.2417 17.272 39.4097 15.496 36.1457 15.256V17.272ZM15.2657 24.76H37.8737V47.368H15.2657V24.76ZM11.8097 23.032V49.144C11.8097 50.104 12.5777 50.872 13.5377 50.872H39.6017C40.5617 50.872 41.3777 50.104 41.3777 49.144V23.032C41.3777 22.072 40.5617 21.256 39.6017 21.256H13.5377C12.5777 21.256 11.8097 22.072 11.8097 23.032Z"/>
</svg>
