<svg width="61" height="60" viewBox="0 0 61 60" xmlns="http://www.w3.org/2000/svg">
<path d="M37.1435 40.216H19.7195V10.648C19.7195 9.688 18.9515 8.92 17.9915 8.92C17.0315 8.92 16.2635 9.688 16.2635 10.648V41.944C16.2635 42.904 17.0315 43.672 17.9915 43.672H37.1435C38.1035 43.672 38.8715 42.904 38.8715 41.944C38.8715 40.984 38.1035 40.216 37.1435 40.216ZM42.3275 15.88H23.2235C22.2635 15.88 21.4955 16.648 21.4955 17.608C21.4955 18.568 22.2635 19.336 23.2235 19.336H40.5995V48.904C40.5995 49.912 41.3675 50.68 42.3275 50.68C43.2875 50.68 44.0555 49.912 44.0555 48.904V17.608C44.0555 16.648 43.2875 15.88 42.3275 15.88ZM51.0155 40.216H47.5595C46.5995 40.216 45.8315 40.984 45.8315 41.944C45.8315 42.904 46.5995 43.672 47.5595 43.672H51.0155C51.9755 43.672 52.7435 42.904 52.7435 41.944C52.7435 40.984 51.9755 40.216 51.0155 40.216ZM12.8075 15.88H9.30354C8.34354 15.88 7.57554 16.648 7.57554 17.608C7.57554 18.568 8.34354 19.336 9.30354 19.336H12.8075C13.7675 19.336 14.5355 18.568 14.5355 17.608C14.5355 16.648 13.7675 15.88 12.8075 15.88Z"/>
</svg>
