<svg width="60" height="60" viewBox="0 0 60 60" xmlns="http://www.w3.org/2000/svg">
<path d="M10.878 41.08C11.838 41.08 12.606 40.312 12.606 39.352V35.848C12.606 34.888 11.838 34.12 10.878 34.12C9.918 34.12 9.15 34.888 9.15 35.848V39.352C9.15 40.312 9.918 41.08 10.878 41.08ZM10.878 30.616C11.838 30.616 12.606 29.848 12.606 28.888V25.432C12.606 24.472 11.838 23.704 10.878 23.704C9.918 23.704 9.15 24.472 9.15 25.432V28.888C9.15 29.848 9.918 30.616 10.878 30.616ZM14.382 42.808H10.878C9.918 42.808 9.15 43.576 9.15 44.536C9.15 45.496 9.918 46.264 10.878 46.264H14.382C15.342 46.264 16.11 45.496 16.11 44.536C16.11 43.576 15.342 42.808 14.382 42.808ZM24.798 42.808H21.294C20.334 42.808 19.566 43.576 19.566 44.536C19.566 45.496 20.334 46.264 21.294 46.264H24.798C25.758 46.264 26.526 45.496 26.526 44.536C26.526 43.576 25.758 42.808 24.798 42.808ZM24.798 13.24H21.294C20.334 13.24 19.566 14.056 19.566 15.016C19.566 15.976 20.334 16.744 21.294 16.744H24.798C25.758 16.744 26.526 15.976 26.526 15.016C26.526 14.056 25.758 13.24 24.798 13.24ZM14.382 13.24H10.878C9.918 13.24 9.15 14.056 9.15 15.016V18.472C9.15 19.432 9.918 20.2 10.878 20.2C11.838 20.2 12.606 19.432 12.606 18.472V16.744H14.382C15.342 16.744 16.11 15.976 16.11 15.016C16.11 14.056 15.342 13.24 14.382 13.24ZM31.758 16.744H47.406V42.808H31.758V16.744ZM49.134 13.24H31.758V9.784C31.758 8.824 30.99 8.056 30.03 8.056C29.07 8.056 28.254 8.824 28.254 9.784V49.816C28.254 50.776 29.07 51.544 30.03 51.544C30.99 51.544 31.758 50.776 31.758 49.816V46.264H49.134C50.094 46.264 50.862 45.496 50.862 44.536V15.016C50.862 14.056 50.094 13.24 49.134 13.24Z"/>
</svg>
