<svg width="61" height="60" viewBox="0 0 61 60" xmlns="http://www.w3.org/2000/svg">
<path d="M32.0956 35.704C31.7596 35.272 31.2316 34.984 30.7036 34.984C30.1276 34.984 29.5996 35.272 29.2636 35.704L20.5756 47.896C20.1916 48.424 20.1436 49.144 20.4316 49.72C20.7676 50.296 21.3436 50.68 22.0156 50.68H39.3916C40.0156 50.68 40.6396 50.296 40.9276 49.72C41.2156 49.144 41.1676 48.424 40.7836 47.896L32.0956 35.704ZM51.5356 28.024H9.82356C8.86356 28.024 8.09556 28.84 8.09556 29.8C8.09556 30.76 8.86356 31.528 9.82356 31.528H51.5356C52.4956 31.528 53.2636 30.76 53.2636 29.8C53.2636 28.84 52.4956 28.024 51.5356 28.024ZM35.9836 12.376L30.7036 19.816L25.3756 12.376H35.9836ZM29.2636 23.848C29.5996 24.28 30.1276 24.568 30.7036 24.568C31.2316 24.568 31.7596 24.28 32.0956 23.848L40.7836 11.656C41.1676 11.128 41.2156 10.456 40.9276 9.88C40.6396 9.304 40.0156 8.92 39.3916 8.92H22.0156C21.3436 8.92 20.7676 9.304 20.4316 9.88C20.1436 10.456 20.1916 11.128 20.5756 11.656L29.2636 23.848Z"/>
</svg>
