<svg width="61" height="60" viewBox="0 0 61 60" xmlns="http://www.w3.org/2000/svg">
<path d="M36.2941 28.36C35.8621 28.696 35.5741 29.224 35.5741 29.752C35.5741 30.328 35.8621 30.856 36.2941 31.192L48.4861 39.88C49.0141 40.264 49.6861 40.312 50.2621 40.024C50.8381 39.688 51.2221 39.112 51.2221 38.44V21.064C51.2221 20.44 50.8381 19.816 50.2621 19.528C49.6861 19.24 49.0141 19.288 48.4861 19.672L36.2941 28.36ZM28.6141 8.92V50.68C28.6141 51.64 29.4301 52.408 30.3901 52.408C31.3501 52.408 32.1181 51.64 32.1181 50.68V8.92C32.1181 7.96 31.3501 7.192 30.3901 7.192C29.4301 7.192 28.6141 7.96 28.6141 8.92ZM12.9661 24.472L20.4061 29.752L12.9661 35.08V24.472ZM24.4381 31.192C24.8701 30.856 25.1581 30.328 25.1581 29.752C25.1581 29.224 24.8701 28.696 24.4381 28.36L12.2461 19.672C11.7181 19.288 11.0461 19.24 10.4701 19.528C9.89411 19.816 9.51011 20.44 9.51011 21.064V38.44C9.51011 39.112 9.89411 39.688 10.4701 40.024C11.0461 40.312 11.7181 40.264 12.2461 39.88L24.4381 31.192Z"/>
</svg>
