<svg width="61" height="60" viewBox="0 0 61 60" xmlns="http://www.w3.org/2000/svg">
<path d="M21.7531 47.896C16.3771 46.888 12.2491 42.184 12.2491 36.52C12.2491 32.344 17.5771 22.936 21.7531 16.312C22.4731 15.112 23.1931 14.056 23.8171 13.096C25.3051 15.352 27.1771 18.376 29.0491 21.544C29.2411 21.928 29.4811 22.312 29.6731 22.648C29.8171 22.888 29.9131 23.128 30.0571 23.368C30.2011 23.656 30.3451 23.896 30.4891 24.184C30.6331 24.472 30.8251 24.76 30.9691 25.048C31.1131 25.288 31.2571 25.528 31.3531 25.768C31.4971 26.056 31.6411 26.296 31.7371 26.536C31.9291 26.824 32.0731 27.112 32.1691 27.4C32.2651 27.544 32.3611 27.688 32.4091 27.88C32.6971 28.408 32.8891 28.888 33.1291 29.416C33.2251 29.608 33.3211 29.848 33.4171 30.04C33.6091 30.424 33.7531 30.856 33.9451 31.24C33.9931 31.432 34.0891 31.672 34.1851 31.864C34.3291 32.248 34.4731 32.632 34.5691 32.968C34.6171 33.112 34.6651 33.304 34.7131 33.448C34.8571 33.88 35.0011 34.36 35.0971 34.792C35.1451 34.936 35.1931 35.128 35.1931 35.272C35.2411 35.416 35.2411 35.56 35.2411 35.656C35.2891 35.992 35.3371 36.28 35.3371 36.52C35.3371 37 35.2891 37.48 35.2411 37.912C35.2411 38.056 35.1931 38.152 35.1931 38.248C35.1451 38.632 35.0491 39.016 34.9531 39.4C34.9531 39.448 34.9051 39.544 34.9051 39.64C34.6651 40.552 34.2811 41.416 33.8011 42.232C33.8011 42.28 33.7531 42.328 33.7531 42.376C33.5131 42.712 33.2731 43.096 33.0331 43.432C32.9851 43.48 32.9371 43.528 32.8891 43.624C32.3131 44.344 31.6411 45.016 30.9211 45.592C30.8251 45.64 30.7771 45.688 30.7291 45.736C30.3931 45.976 30.0091 46.216 29.6731 46.456C27.9451 47.464 25.9291 48.088 23.8171 48.088C23.0971 48.088 22.4251 47.992 21.7531 47.896ZM38.5051 9.016C38.1691 8.536 37.6411 8.248 37.0651 8.248C36.4891 8.248 35.9611 8.536 35.6251 9.016C35.6251 9.064 33.1771 12.568 30.4411 17.08C27.9931 13 25.7851 9.784 25.2091 9.016C24.5851 8.056 23.0011 8.056 22.3771 9.016C22.2331 9.16 22.0411 9.496 21.7531 9.928C18.9211 14.104 8.79307 29.56 8.79307 36.52C8.79307 44.104 14.4571 50.392 21.7531 51.4C22.4251 51.496 23.0971 51.544 23.8171 51.544C26.2171 51.544 28.4731 50.968 30.4411 49.96C32.5051 50.968 34.7611 51.544 37.0651 51.544C45.3691 51.544 52.0891 44.824 52.0891 36.52C52.0891 28.888 39.8971 11.032 38.5051 9.016Z"/>
</svg>
