<svg width="61" height="60" viewBox="0 0 61 60" xmlns="http://www.w3.org/2000/svg">
<path d="M49.2477 48.904H35.3277V34.984H49.2477V48.904ZM50.9757 31.48H33.5997C32.6397 31.48 31.8717 32.296 31.8717 33.256V50.68C31.8717 51.64 32.6397 52.408 33.5997 52.408H50.9757C51.9357 52.408 52.7037 51.64 52.7037 50.68V33.256C52.7037 32.296 51.9357 31.48 50.9757 31.48ZM49.2477 24.568H35.3277V10.648H49.2477V24.568ZM50.9757 7.192H33.5997C32.6397 7.192 31.8717 7.96 31.8717 8.92V26.296C31.8717 27.256 32.6397 28.024 33.5997 28.024H50.9757C51.9357 28.024 52.7037 27.256 52.7037 26.296V8.92C52.7037 7.96 51.9357 7.192 50.9757 7.192ZM24.9117 48.904H10.9917V34.984H24.9117V48.904ZM26.6397 31.48H9.26374C8.30374 31.48 7.53574 32.296 7.53574 33.256V50.68C7.53574 51.64 8.30374 52.408 9.26374 52.408H26.6397C27.5997 52.408 28.4157 51.64 28.4157 50.68V33.256C28.4157 32.296 27.5997 31.48 26.6397 31.48ZM24.9117 24.568H10.9917V10.648H24.9117V24.568ZM26.6397 7.192H9.26374C8.30374 7.192 7.53574 7.96 7.53574 8.92V26.296C7.53574 27.256 8.30374 28.024 9.26374 28.024H26.6397C27.5997 28.024 28.4157 27.256 28.4157 26.296V8.92C28.4157 7.96 27.5997 7.192 26.6397 7.192Z"/>
</svg>
