<svg width="61" height="60" viewBox="0 0 61 60" xmlns="http://www.w3.org/2000/svg">
<path d="M39.3197 21.4L34.0397 13.48H43.1597L48.4397 21.4H39.3197ZM34.7597 40.408L39.3197 24.856H47.9117L34.7597 40.408ZM30.8237 41.608L25.9277 24.856H35.7197L30.8237 41.608ZM13.6877 24.856H22.2797L26.8397 40.408L13.6877 24.856ZM22.2797 21.4H13.2077L18.4877 13.48H27.5597L22.2797 21.4ZM30.8237 14.92L35.1437 21.4H26.4557L30.8237 14.92ZM53.2877 22.6C53.2397 22.504 53.1917 22.36 53.1437 22.264C53.1437 22.264 53.1437 22.216 53.0957 22.168L45.5117 10.792C45.5117 10.744 45.4637 10.744 45.4157 10.696C45.3197 10.6 45.2717 10.504 45.1757 10.456C45.0797 10.36 44.9837 10.312 44.8877 10.264C44.7917 10.216 44.6957 10.168 44.5997 10.12C44.4557 10.072 44.3597 10.072 44.2157 10.072C44.1677 10.072 44.1197 10.024 44.0717 10.024H17.5277C17.4797 10.024 17.4317 10.072 17.3837 10.072C17.2397 10.072 17.1437 10.072 16.9997 10.12C16.9037 10.168 16.8077 10.216 16.7117 10.264C16.6157 10.312 16.5677 10.36 16.4717 10.456C16.3757 10.504 16.2797 10.6 16.2317 10.696C16.1837 10.744 16.1357 10.744 16.0877 10.792L8.50367 22.168C8.45567 22.216 8.45567 22.264 8.45567 22.312C8.40767 22.36 8.40767 22.36 8.40767 22.408C8.35967 22.456 8.35967 22.552 8.31167 22.6C8.31167 22.744 8.26367 22.84 8.26367 22.984C8.26367 23.032 8.21567 23.032 8.21567 23.08V23.128C8.21567 23.176 8.21567 23.272 8.26367 23.32C8.26367 23.416 8.26367 23.512 8.31167 23.656C8.31167 23.656 8.31167 23.704 8.31167 23.752C8.35967 23.8 8.35967 23.8 8.40767 23.848C8.45567 23.944 8.50367 24.088 8.59967 24.184C8.59967 24.184 8.59967 24.232 8.64767 24.28L29.4797 48.904C29.5277 48.952 29.5277 48.952 29.5757 49.048C29.5757 49.048 29.5757 49.048 29.6237 49.048C29.6237 49.096 29.6717 49.144 29.6717 49.144C29.6717 49.144 29.6717 49.144 29.7197 49.192C29.8157 49.24 29.9117 49.288 30.0077 49.336C30.0557 49.384 30.1037 49.432 30.1517 49.432C30.1997 49.432 30.1997 49.48 30.2477 49.48H30.2957C30.2957 49.48 30.2957 49.48 30.3437 49.48C30.4877 49.528 30.6317 49.576 30.8237 49.576C30.9677 49.576 31.1117 49.528 31.3037 49.48C31.3517 49.48 31.3517 49.48 31.3997 49.48L31.4477 49.432C31.5437 49.432 31.5917 49.384 31.6397 49.336C31.6877 49.288 31.7837 49.24 31.8797 49.192H31.9277C31.9277 49.144 31.9277 49.144 31.9277 49.144C31.9757 49.144 31.9757 49.096 32.0237 49.048C32.0717 48.952 32.1197 48.952 32.1197 48.904L52.9997 24.28C52.9997 24.232 52.9997 24.184 53.0477 24.184C53.0957 24.088 53.1437 23.944 53.1917 23.848C53.2397 23.752 53.2877 23.656 53.3357 23.56C53.3837 23.464 53.3837 23.368 53.3837 23.224C53.3837 23.128 53.3837 23.032 53.3837 22.888C53.3357 22.792 53.3357 22.696 53.2877 22.6Z"/>
</svg>
