<svg width="61" height="60" viewBox="0 0 61 60" xmlns="http://www.w3.org/2000/svg">
<path d="M48.6988 29.848C48.6988 39.928 40.5388 48.136 30.4588 48.136C26.0428 48.136 22.0108 46.552 18.8428 43.912L44.5228 18.28C47.1628 21.4 48.6988 25.48 48.6988 29.848ZM12.2188 29.848C12.2188 19.816 20.3788 11.608 30.4588 11.608C34.8748 11.608 38.9068 13.192 42.0748 15.784L16.3948 41.464C13.8028 38.344 12.2188 34.264 12.2188 29.848ZM51.6748 11.128C52.3468 10.408 52.3468 9.352 51.6748 8.632C51.0028 7.96 49.8988 7.96 49.2268 8.632L44.5228 13.336C40.7308 10.12 35.8348 8.152 30.4588 8.152C18.5068 8.152 8.76279 17.896 8.76279 29.848C8.76279 35.224 10.6828 40.12 13.9468 43.912L9.24279 48.616C8.57079 49.336 8.57079 50.44 9.24279 51.112C9.57879 51.448 10.0108 51.64 10.4908 51.64C10.9228 51.64 11.3548 51.448 11.6908 51.112L16.3948 46.408C20.1868 49.672 25.0828 51.64 30.4588 51.64C42.4588 51.64 52.2028 41.848 52.2028 29.848C52.2028 24.52 50.2348 19.576 46.9708 15.784L51.6748 11.128Z"/>
</svg>
