<svg width="61" height="60" viewBox="0 0 61 60" xmlns="http://www.w3.org/2000/svg">
<path d="M33.4236 27.88C33.2796 27.688 33.1356 27.544 32.9916 27.352C32.1756 26.536 30.9756 26.2 29.8236 26.392C29.6316 26.44 29.3916 26.536 29.1996 26.584C29.0076 26.68 28.7676 26.776 28.5756 26.92C28.3836 27.064 28.2396 27.208 28.0956 27.352C27.9036 27.544 27.7596 27.688 27.6156 27.88C27.5196 28.072 27.4236 28.264 27.3276 28.456C27.2316 28.696 27.1836 28.936 27.1356 29.128C27.0876 29.368 27.0396 29.608 27.0396 29.8C27.0396 30.712 27.4236 31.624 28.0956 32.248C28.7196 32.92 29.6316 33.304 30.5436 33.304C30.7356 33.304 30.9756 33.256 31.2156 33.208C31.4076 33.16 31.6476 33.112 31.8396 33.016C32.0796 32.92 32.2716 32.824 32.4636 32.68C32.6556 32.584 32.7996 32.44 32.9916 32.248C33.6156 31.624 33.9996 30.712 33.9996 29.8C33.9996 29.608 33.9996 29.368 33.9516 29.128C33.9036 28.936 33.8076 28.696 33.7596 28.456C33.6636 28.264 33.5676 28.072 33.4236 27.88ZM45.3276 17.704C45.6636 18.088 46.1436 18.328 46.6716 18.328C47.0556 18.328 47.4396 18.184 47.7756 17.944C48.4956 17.32 48.5916 16.216 48.0156 15.496C46.6716 13.864 45.0876 12.424 43.3596 11.224C42.5916 10.696 41.4876 10.888 40.9596 11.656C40.4316 12.472 40.6236 13.528 41.3916 14.104C42.8796 15.112 44.1756 16.312 45.3276 17.704ZM33.3276 48.712L33.0876 48.76C31.4076 49.048 29.7276 49.048 28.0476 48.76C27.0876 48.664 26.2236 49.384 26.0796 50.296C25.9836 51.256 26.6076 52.12 27.5676 52.264C28.5276 52.408 29.5356 52.456 30.4956 52.456C31.5036 52.456 32.5596 52.408 33.5676 52.264L33.8556 52.216C34.8156 52.072 35.4876 51.16 35.3436 50.2C35.1996 49.288 34.2876 48.568 33.3276 48.712ZM45.8076 41.272C44.7516 42.712 43.5036 43.96 42.0636 45.064C41.2956 45.64 41.1516 46.744 41.7276 47.512C42.0636 47.944 42.5916 48.184 43.1196 48.184C43.5036 48.184 43.8396 48.088 44.1756 47.848C45.8556 46.552 47.3436 45.064 48.5916 43.384C49.1676 42.616 49.0236 41.512 48.2556 40.936C47.4876 40.36 46.3836 40.504 45.8076 41.272ZM52.9116 26.776C52.8636 26.392 52.8156 26.008 52.7196 25.624C52.5756 24.664 51.6636 24.04 50.7036 24.232C49.7436 24.424 49.1196 25.288 49.3116 26.248C49.3596 26.584 49.4076 26.92 49.4556 27.208C49.5996 28.072 49.6476 28.984 49.6476 29.848C49.6476 30.76 49.5996 31.672 49.4556 32.536C49.3116 33.496 49.9836 34.408 50.9436 34.504C50.9916 34.552 51.0876 34.552 51.1836 34.552C52.0476 34.552 52.7676 33.928 52.9116 33.064C53.0556 31.96 53.1036 30.904 53.1036 29.848C53.1036 28.84 53.0556 27.784 52.9116 26.776ZM11.3916 29.8C11.3916 29.032 11.4396 28.312 11.5356 27.544C11.6796 26.632 10.9596 25.768 9.99964 25.624C9.03964 25.528 8.22364 26.2 8.07964 27.16C7.98364 28.024 7.93564 28.888 7.93564 29.8C7.93564 30.808 7.98364 31.816 8.12764 32.872L8.22364 33.448C8.36764 34.312 9.08764 34.888 9.95164 34.888C10.0476 34.888 10.1436 34.888 10.2396 34.888C11.1516 34.696 11.8236 33.832 11.6796 32.872L11.5836 32.392C11.4876 31.528 11.3916 30.664 11.3916 29.8ZM13.5036 19.48C14.0796 19.48 14.6076 19.192 14.9436 18.712C15.9996 17.272 17.1996 15.976 18.5916 14.872C19.3596 14.248 19.4556 13.192 18.8796 12.424C18.2556 11.656 17.1996 11.56 16.4316 12.136C14.7996 13.48 13.3116 15.016 12.1116 16.744C11.5356 17.512 11.7276 18.568 12.5436 19.144C12.8316 19.384 13.1676 19.48 13.5036 19.48ZM15.4236 41.56C14.8476 40.792 13.7436 40.648 12.9756 41.224C12.2556 41.848 12.1116 42.904 12.6876 43.672C13.9836 45.352 15.5196 46.792 17.1996 48.04C17.5356 48.28 17.8716 48.376 18.2076 48.376C18.7836 48.376 19.3116 48.136 19.6476 47.656C20.1756 46.888 20.0316 45.832 19.2636 45.256C17.8236 44.2 16.5276 42.952 15.4236 41.56ZM27.2316 10.984C27.4716 10.936 27.7116 10.888 27.9516 10.888C29.4876 10.648 31.0236 10.648 32.5116 10.792C33.4716 10.888 34.3356 10.216 34.4316 9.256C34.5276 8.296 33.8556 7.432 32.8956 7.336C31.1196 7.144 29.2956 7.192 27.4716 7.432C27.1836 7.48 26.8956 7.528 26.6076 7.576C25.6476 7.72 25.0236 8.632 25.2156 9.592C25.3596 10.408 26.0796 10.984 26.8956 10.984C27.0396 10.984 27.1356 10.984 27.2316 10.984Z"/>
</svg>
