<svg width="60" height="60" viewBox="0 0 60 60" xmlns="http://www.w3.org/2000/svg">
<path d="M31.9436 26.872C31.7516 26.728 31.5596 26.632 31.3196 26.536C31.1276 26.488 30.8876 26.392 30.6956 26.344C30.2636 26.296 29.7836 26.296 29.3036 26.344C29.1116 26.392 28.8716 26.488 28.6796 26.536C28.4876 26.632 28.2476 26.728 28.0556 26.872C27.8636 27.016 27.7196 27.16 27.5756 27.304C26.9036 27.976 26.5196 28.84 26.5196 29.752C26.5196 29.992 26.5676 30.232 26.6156 30.424C26.6636 30.664 26.7116 30.904 26.8076 31.096C26.8556 31.336 26.9996 31.528 27.1436 31.72C27.2396 31.864 27.3836 32.056 27.5756 32.2C28.1996 32.872 29.0636 33.256 30.0236 33.256C30.9356 33.256 31.7996 32.872 32.4716 32.2C32.6156 32.056 32.8076 31.864 32.9036 31.72C33.0476 31.528 33.1436 31.336 33.2396 31.096C33.2876 30.904 33.3836 30.664 33.4316 30.424C33.4796 30.232 33.4796 29.992 33.4796 29.752C33.4796 28.84 33.0956 27.976 32.4716 27.304C32.2796 27.16 32.1356 27.016 31.9436 26.872ZM30.0236 48.904C19.4636 48.904 10.8716 40.312 10.8716 29.752C10.8716 19.24 19.4636 10.648 30.0236 10.648C40.5356 10.648 49.1276 19.24 49.1276 29.752C49.1276 40.312 40.5356 48.904 30.0236 48.904ZM30.0236 7.192C17.5436 7.192 7.41563 17.32 7.41563 29.752C7.41563 42.232 17.5436 52.408 30.0236 52.408C42.4556 52.408 52.5836 42.232 52.5836 29.752C52.5836 17.32 42.4556 7.192 30.0236 7.192Z"/>
</svg>
