<svg width="61" height="60" viewBox="0 0 61 60" xmlns="http://www.w3.org/2000/svg">
<path d="M42.5277 28.024C41.5677 28.024 40.7997 28.792 40.7997 29.752C40.7997 35.512 36.1437 40.216 30.3837 40.216C29.4237 40.216 28.6077 40.984 28.6077 41.944C28.6077 42.904 29.4237 43.672 30.3837 43.672C38.0157 43.672 44.2557 37.432 44.2557 29.752C44.2557 28.792 43.4877 28.024 42.5277 28.024ZM30.3837 48.904C19.8237 48.904 11.2317 40.312 11.2317 29.752C11.2317 19.24 19.8237 10.648 30.3837 10.648C40.8957 10.648 49.4877 19.24 49.4877 29.752C49.4877 40.312 40.8957 48.904 30.3837 48.904ZM30.3837 7.192C17.9037 7.192 7.77573 17.32 7.77573 29.752C7.77573 42.232 17.9037 52.408 30.3837 52.408C42.8157 52.408 52.9437 42.232 52.9437 29.752C52.9437 17.32 42.8157 7.192 30.3837 7.192Z"/>
</svg>
