<svg width="61" height="60" viewBox="0 0 61 60" xmlns="http://www.w3.org/2000/svg">
<path d="M44.5372 36.808C43.0012 35.272 40.5532 35.272 39.0172 36.808C37.4812 38.344 37.4812 40.792 39.0172 42.328C40.5532 43.864 43.0012 43.864 44.5372 42.328C46.0732 40.792 46.0732 38.344 44.5372 36.808ZM27.2572 17.272C25.7212 18.76 25.7212 21.256 27.2572 22.792C28.7932 24.328 31.2892 24.328 32.7772 22.792C34.3132 21.256 34.3132 18.76 32.7772 17.272C31.2892 15.736 28.7932 15.736 27.2572 17.272ZM15.5452 36.808C14.0092 38.344 14.0092 40.792 15.5452 42.328C17.0812 43.864 19.5292 43.864 21.0652 42.328C22.6012 40.792 22.6012 38.344 21.0652 36.808C19.5292 35.272 17.0812 35.272 15.5452 36.808Z"/>
</svg>
