<svg width="61" height="60" viewBox="0 0 61 60" xmlns="http://www.w3.org/2000/svg">
<path d="M37.5437 32.536L31.8317 38.296V17.608C31.8317 16.648 31.0637 15.88 30.1037 15.88C29.1437 15.88 28.3277 16.648 28.3277 17.608V38.152L22.6157 32.488C21.9437 31.816 20.8397 31.816 20.1677 32.488C19.4957 33.16 19.4957 34.264 20.1677 34.936L27.7037 42.424C28.3757 43.096 29.2397 43.432 30.1037 43.432C31.0157 43.432 31.8797 43.096 32.5517 42.424L39.9917 34.984C40.6637 34.312 40.7117 33.208 39.9917 32.536C39.3197 31.864 38.2157 31.864 37.5437 32.536ZM30.1037 48.904C19.5437 48.904 10.9517 40.312 10.9517 29.752C10.9517 19.24 19.5437 10.648 30.1037 10.648C40.6157 10.648 49.2077 19.24 49.2077 29.752C49.2077 40.312 40.6157 48.904 30.1037 48.904ZM30.1037 7.192C17.6237 7.192 7.4957 17.32 7.4957 29.752C7.4957 42.232 17.6237 52.408 30.1037 52.408C42.5357 52.408 52.6637 42.232 52.6637 29.752C52.6637 17.32 42.5357 7.192 30.1037 7.192Z"/>
</svg>
