<svg width="61" height="60" viewBox="0 0 61 60" xmlns="http://www.w3.org/2000/svg">
<path d="M28.3836 42.424C29.0556 43.096 29.9196 43.432 30.7836 43.432C31.6956 43.432 32.5596 43.096 33.2316 42.424L40.6716 34.984C41.3436 34.312 41.3916 33.208 40.6716 32.536C39.9996 31.864 38.8956 31.864 38.2236 32.536L32.5116 38.296V17.608C32.5116 16.648 31.7436 15.88 30.7836 15.88C29.8236 15.88 29.0076 16.648 29.0076 17.608V38.152L23.2956 32.488C22.6236 31.816 21.5196 31.816 20.8476 32.488C20.1756 33.16 20.1756 34.264 20.8476 34.936L28.3836 42.424ZM49.8876 48.904H11.6316V10.648H49.8876V48.904ZM51.6156 7.192H9.90363C8.94363 7.192 8.17563 7.96 8.17563 8.92V50.68C8.17563 51.64 8.94363 52.408 9.90363 52.408H51.6156C52.5756 52.408 53.3436 51.64 53.3436 50.68V8.92C53.3436 7.96 52.5756 7.192 51.6156 7.192Z"/>
</svg>
