<svg width="61" height="60" viewBox="0 0 61 60" xmlns="http://www.w3.org/2000/svg">
<path d="M32.8237 29.848L45.1117 17.56C45.7837 16.888 45.7837 15.784 45.1117 15.112C44.3917 14.44 43.3357 14.44 42.6157 15.112L30.3277 27.4L18.0397 15.112C17.3677 14.44 16.2637 14.44 15.5917 15.112C14.9197 15.784 14.9197 16.888 15.5917 17.56L27.8797 29.848L15.5917 42.136C14.9197 42.808 14.9197 43.912 15.5917 44.584C15.9277 44.92 16.3597 45.112 16.8397 45.112C17.2717 45.112 17.7037 44.92 18.0397 44.584L30.3277 32.296L42.6157 44.584C42.9517 44.92 43.4317 45.112 43.8637 45.112C44.2957 45.112 44.7757 44.92 45.1117 44.584C45.7837 43.912 45.7837 42.808 45.1117 42.136L32.8237 29.848Z"/>
</svg>
