<svg width="61" height="60" viewBox="0 0 61 60" xmlns="http://www.w3.org/2000/svg">
<path d="M13.8417 39.976H15.2817V42.376C15.2817 43.336 16.0977 44.152 17.0577 44.152H19.8897V46.024L12.3537 47.512L13.8417 39.976ZM21.6177 40.648H18.7857V38.248C18.7857 37.288 18.0177 36.52 17.0577 36.52H16.2417L37.5057 15.208L44.6097 22.36L23.3457 43.576V42.376C23.3457 41.416 22.5777 40.648 21.6177 40.648ZM43.1697 11.656C44.5137 11.656 45.7617 12.136 46.7217 13.096C48.5937 14.968 48.6897 17.896 47.0577 19.864L40.0017 12.808C40.8657 12.04 41.9697 11.656 43.1697 11.656ZM49.2177 10.648C47.5857 9.064 45.4257 8.152 43.1697 8.152C43.1697 8.152 43.1697 8.152 43.1217 8.152C40.8657 8.152 38.7057 9.064 37.1217 10.696L11.2497 36.616C11.0097 36.856 10.8657 37.144 10.7697 37.48L8.41773 49.384C8.32173 49.96 8.51373 50.536 8.89773 50.92C9.23373 51.256 9.66573 51.448 10.1457 51.448C10.2417 51.448 10.3857 51.448 10.4817 51.4L22.3377 49.096C22.6737 49 23.0097 48.856 23.2497 48.616L49.2177 22.696C52.5297 19.384 52.5297 13.96 49.2177 10.648Z"/>
</svg>
