<svg width="61" height="60" viewBox="0 0 61 60" xmlns="http://www.w3.org/2000/svg">
<path d="M50.2101 10.936C49.4901 10.168 48.2421 10.168 47.4741 10.888L22.0341 34.552C21.4101 35.128 21.0741 35.944 21.0741 36.712C21.6021 36.952 22.0341 37.24 22.4661 37.672C23.1381 38.344 23.5221 39.064 23.7141 39.784C24.6741 39.928 25.6821 39.64 26.4501 38.872L50.2581 13.672C50.9781 12.904 50.9781 11.704 50.2101 10.936ZM18.2421 37.288C16.9461 37.288 15.6501 37.816 14.6901 38.824C13.7781 39.736 13.4901 40.936 13.2021 42.328C13.0101 43.192 12.8181 44.2 12.3861 45.304C12.0501 46.168 11.6181 47.08 10.9461 48.088L10.0821 49.384L11.6181 49.432C11.7141 49.432 11.8101 49.432 11.9061 49.432C13.2981 49.432 14.8341 49.048 16.2741 48.52C18.4341 47.704 20.4501 46.504 21.4101 45.544C23.4741 43.48 23.5221 40.648 21.5541 38.68C20.6421 37.768 19.4901 37.288 18.2421 37.288Z"/>
</svg>
