<svg width="61" height="60" viewBox="0 0 61 60" xmlns="http://www.w3.org/2000/svg">
<path d="M12.786 31.96C12.834 31.96 12.882 32.008 12.978 32.008C13.938 32.008 14.706 31.24 14.706 30.28C14.706 29.704 14.706 29.128 14.802 28.552C15.618 20.248 22.674 13.768 31.218 13.768C32.178 13.768 32.946 12.952 32.946 11.992C32.946 11.032 32.178 10.264 31.218 10.264C22.914 10.264 15.81 15.352 12.786 22.504C11.97 24.424 11.49 26.44 11.298 28.552C11.25 29.128 11.202 29.704 11.202 30.28C11.202 31.144 11.922 31.864 12.786 31.96ZM49.458 28.504C48.498 28.504 47.73 29.32 47.73 30.28C47.73 39.352 40.29 46.792 31.218 46.792C30.594 46.792 30.018 47.128 29.73 47.656C29.586 47.896 29.49 48.184 29.49 48.52C29.49 49.528 30.258 50.296 31.218 50.296C34.77 50.296 38.13 49.336 41.058 47.656C47.106 44.2 51.186 37.72 51.186 30.28C51.186 29.32 50.418 28.504 49.458 28.504ZM50.658 12.76C51.378 11.992 51.378 10.792 50.61 10.072C49.89 9.304 48.642 9.304 47.874 10.024L27.906 28.552L22.434 33.64C21.81 34.264 21.474 35.032 21.474 35.848C22.002 36.04 22.434 36.376 22.866 36.808C23.538 37.432 23.922 38.152 24.114 38.92C25.074 39.064 26.082 38.728 26.802 38.008L31.218 33.352L50.658 12.76ZM18.642 36.376C17.346 36.376 16.05 36.952 15.09 37.912C14.178 38.824 13.89 40.024 13.602 41.416C13.41 42.328 13.218 43.288 12.786 44.392C12.45 45.256 12.018 46.216 11.346 47.176L10.482 48.472L12.018 48.52C12.114 48.568 12.21 48.568 12.306 48.568C13.698 48.568 15.234 48.184 16.674 47.656C18.834 46.84 20.85 45.64 21.81 44.68C23.874 42.568 23.922 39.736 21.954 37.768C21.042 36.904 19.89 36.376 18.642 36.376Z"/>
</svg>
