<svg width="61" height="60" viewBox="0 0 61 60" xmlns="http://www.w3.org/2000/svg">
<path d="M41.9852 38.536L38.0492 34.6C38.6252 33.688 39.1052 32.632 39.2972 31.528H44.8652C44.5292 34.168 43.5212 36.52 41.9852 38.536ZM32.5292 43.864V38.296C33.6332 38.104 34.6892 37.624 35.6012 37.048L39.5372 40.984C37.5212 42.52 35.1692 43.528 32.5292 43.864ZM22.0652 40.984L26.0012 37.048C26.9132 37.624 27.9692 38.104 29.0732 38.296V43.864C26.4332 43.528 24.0812 42.52 22.0652 40.984ZM16.7372 31.528H22.3052C22.4972 32.632 22.9292 33.688 23.5532 34.6L19.6172 38.536C18.0812 36.52 17.0252 34.168 16.7372 31.528ZM19.6172 21.064L23.5532 25C22.9292 25.912 22.4972 26.968 22.3052 28.072H16.7372C17.0252 25.432 18.0812 23.08 19.6172 21.064ZM29.0732 15.736V21.304C27.9692 21.496 26.9132 21.976 26.0012 22.552L22.0652 18.616C24.0812 17.08 26.4332 16.072 29.0732 15.736ZM39.4892 18.616L35.6012 22.552C34.6892 21.976 33.6332 21.496 32.5292 21.304V15.736C35.1692 16.072 37.5212 17.08 39.4892 18.616ZM30.8012 35.032C27.9212 35.032 25.5692 32.68 25.5692 29.8C25.5692 26.92 27.9212 24.568 30.8012 24.568C33.6812 24.568 36.0332 26.92 36.0332 29.8C36.0332 32.68 33.6812 35.032 30.8012 35.032ZM44.8652 28.072H39.2972C39.1052 26.968 38.6252 25.912 38.0492 25L41.9852 21.064C43.5212 23.08 44.5292 25.432 44.8652 28.072ZM50.7212 28.072H48.3692C48.0332 24.472 46.5932 21.256 44.4332 18.616L46.6412 16.408C47.3132 15.736 47.3132 14.632 46.6412 13.96C45.9692 13.288 44.8652 13.288 44.1452 13.96L41.9852 16.168C39.3452 14.008 36.0812 12.568 32.5292 12.232V9.88C32.5292 8.92 31.7612 8.152 30.8012 8.152C29.8412 8.152 29.0732 8.92 29.0732 9.88V12.232C25.4732 12.568 22.2092 14.008 19.6172 16.168L17.4092 13.96C16.7372 13.288 15.6332 13.288 14.9612 13.96C14.2892 14.632 14.2892 15.736 14.9612 16.408L17.1692 18.616C15.0092 21.256 13.5692 24.472 13.2332 28.072H10.8812C9.92117 28.072 9.15317 28.84 9.15317 29.8C9.15317 30.76 9.92117 31.528 10.8812 31.528H13.2332C13.5692 35.128 15.0092 38.344 17.1212 40.984L14.9612 43.192C14.2892 43.864 14.2892 44.968 14.9612 45.64C15.2972 45.976 15.7292 46.12 16.2092 46.12C16.6412 46.12 17.0732 45.976 17.4092 45.64L19.6172 43.432C22.2092 45.592 25.4732 47.032 29.0732 47.368V49.72C29.0732 50.68 29.8412 51.448 30.8012 51.448C31.7612 51.448 32.5292 50.68 32.5292 49.72V47.368C36.0812 47.032 39.3452 45.592 41.9852 43.432L44.1452 45.64C44.5292 45.976 44.9612 46.12 45.3932 46.12C45.8252 46.12 46.3052 45.976 46.6412 45.64C47.3132 44.968 47.3132 43.864 46.6412 43.144L44.4332 40.984C46.5932 38.344 48.0332 35.128 48.3692 31.528H50.7212C51.6812 31.528 52.4492 30.76 52.4492 29.8C52.4492 28.84 51.6812 28.072 50.7212 28.072Z"/>
</svg>
