<svg width="60" height="60" viewBox="0 0 60 60" xmlns="http://www.w3.org/2000/svg">
<path d="M44.6636 43.096L38.4716 36.904C39.7196 35.176 40.4396 33.064 40.4396 30.904C40.4396 28.696 39.7196 26.584 38.4716 24.856L44.6636 18.664C50.5676 25.72 50.5676 36.04 44.6636 43.096ZM17.7836 45.544L23.9756 39.352C25.7036 40.648 27.8156 41.32 29.9756 41.32C32.1836 41.32 34.2956 40.648 36.0236 39.352L42.2156 45.544C35.1596 51.496 24.8396 51.496 17.7836 45.544ZM15.2876 18.664L21.4796 24.856C20.2316 26.584 19.5596 28.696 19.5596 30.904C19.5596 33.064 20.2316 35.176 21.4796 36.904L15.2876 43.096C9.43163 36.04 9.43163 25.72 15.2876 18.664ZM25.0796 35.8C23.7836 34.504 23.0636 32.728 23.0636 30.904C23.0636 29.032 23.7836 27.256 25.0796 25.96C26.3756 24.664 28.1516 23.944 29.9756 23.944C31.8476 23.944 33.5756 24.664 34.9196 25.96C36.2156 27.256 36.9356 29.032 36.9356 30.904C36.9356 32.728 36.2156 34.504 34.9196 35.8C32.2796 38.44 27.7196 38.44 25.0796 35.8ZM42.2156 16.216L36.0236 22.408C34.2956 21.112 32.1836 20.44 29.9756 20.44C27.8156 20.44 25.7036 21.112 23.9756 22.408L17.7836 16.216C21.2876 13.24 25.6556 11.752 29.9756 11.752C34.3436 11.752 38.7116 13.24 42.2156 16.216ZM45.9596 14.92C37.1756 6.088 22.8236 6.088 14.0396 14.92C5.20763 23.704 5.20763 38.056 14.0396 46.84C18.4076 51.304 24.2156 53.512 29.9756 53.512C35.7836 53.512 41.5436 51.304 45.9596 46.84C54.7916 38.056 54.7916 23.704 45.9596 14.92Z"/>
</svg>
