<svg width="61" height="60" viewBox="0 0 61 60" xmlns="http://www.w3.org/2000/svg">
<path d="M30.6578 36.088C31.9058 36.088 32.9138 37.096 32.9138 38.296C32.9138 39.544 31.9058 40.552 30.6578 40.552C29.4578 40.552 28.4498 39.544 28.4498 38.296C28.4498 37.096 29.4578 36.088 30.6578 36.088ZM30.6578 44.056C33.8258 44.056 36.3698 41.464 36.3698 38.296C36.3698 35.176 33.8258 32.584 30.6578 32.584C27.5378 32.584 24.9458 35.176 24.9458 38.296C24.9458 41.464 27.5378 44.056 30.6578 44.056ZM43.8578 42.136C43.8578 45.352 41.2178 47.992 38.0018 47.992H23.3138C20.0978 47.992 17.4578 45.352 17.4578 42.136V28.648H43.8578V42.136ZM45.5858 25.192H21.3938V20.872C21.3938 15.784 25.5698 11.608 30.6578 11.608C35.7938 11.608 39.9218 15.784 39.9218 20.872C39.9218 21.832 40.6898 22.648 41.6498 22.648C42.6098 22.648 43.4258 21.832 43.4258 20.872C43.4258 13.864 37.7138 8.152 30.6578 8.152C23.6498 8.152 17.9378 13.864 17.9378 20.872V25.192H15.7298C14.7698 25.192 14.0018 25.96 14.0018 26.92V42.136C14.0018 47.272 18.1778 51.448 23.3138 51.448H38.0018C43.1378 51.448 47.3618 47.272 47.3618 42.136V26.92C47.3618 25.96 46.5458 25.192 45.5858 25.192Z"/>
</svg>
