<svg width="61" height="60" viewBox="0 0 61 60" xmlns="http://www.w3.org/2000/svg">
<path d="M46.4644 45.976C44.6884 47.752 42.0964 48.424 39.6964 47.8C38.4964 47.464 37.4404 46.84 36.5284 45.976C35.2324 44.632 34.4644 42.856 34.4644 40.984C34.4644 39.112 35.2324 37.384 36.5284 36.04C37.9204 34.648 39.6964 33.976 41.5204 33.976C43.2964 33.976 45.1204 34.648 46.4644 36.04C47.8084 37.384 48.5284 39.112 48.5284 40.984C48.5284 42.856 47.8084 44.632 46.4644 45.976ZM48.9124 33.592L24.1444 8.824C23.4724 8.104 22.3684 8.104 21.6964 8.824C21.0244 9.496 21.0244 10.6 21.6964 11.272L40.9924 30.568C38.9764 30.664 37.0564 31.336 35.3284 32.536L11.6644 8.872C10.9924 8.2 9.88843 8.2 9.21643 8.872C8.54443 9.592 8.54443 10.648 9.21643 11.368L32.8804 35.032C31.7764 36.616 31.1524 38.488 31.0564 40.456L11.7604 21.208C11.0884 20.536 9.98443 20.536 9.31243 21.208C8.64043 21.88 8.64043 22.984 9.31243 23.656L34.0804 48.424C35.3764 49.72 37.0084 50.68 38.7844 51.16C39.6964 51.4 40.6084 51.496 41.4724 51.496C44.2564 51.496 46.9444 50.392 48.9124 48.424C50.9284 46.456 51.9844 43.816 51.9844 40.984C51.9844 38.2 50.9284 35.56 48.9124 33.592Z"/>
</svg>
