<svg width="60" height="60" viewBox="0 0 60 60" xmlns="http://www.w3.org/2000/svg">
<path d="M25.9847 31.528C27.4247 31.528 28.5767 32.728 28.5767 34.168C28.5767 35.56 27.4247 36.76 25.9847 36.76C24.5447 36.76 23.3927 35.56 23.3927 34.168C23.3927 32.728 24.5447 31.528 25.9847 31.528ZM42.1607 34.408C41.2967 33.976 40.2887 34.312 39.8567 35.176L35.3447 44.2L15.4247 47.176L22.9607 39.64C23.0087 39.592 23.0567 39.496 23.1047 39.448C23.9687 39.928 24.9287 40.216 25.9847 40.216C29.3447 40.216 32.0807 37.48 32.0807 34.168C32.0807 30.808 29.3447 28.072 25.9847 28.072C22.6247 28.072 19.9367 30.808 19.9367 34.168C19.9367 35.224 20.2247 36.184 20.7047 37.048C20.6087 37.096 20.5607 37.144 20.5127 37.192L12.9287 44.728L15.9527 24.808L24.7847 20.488C25.6487 20.056 25.9847 19 25.6007 18.136C25.1687 17.272 24.1127 16.936 23.2487 17.368L13.6007 22.12C13.0727 22.36 12.7367 22.84 12.6407 23.416L8.70469 49.432C8.70469 49.528 8.70469 49.576 8.70469 49.624C8.70469 49.672 8.70469 49.72 8.70469 49.768C8.70469 49.96 8.75269 50.152 8.80069 50.296C8.84869 50.344 8.84869 50.392 8.84869 50.44C8.94469 50.584 9.04069 50.776 9.18469 50.92C9.52069 51.256 10.0007 51.448 10.4327 51.448C10.5287 51.448 10.6247 51.448 10.6727 51.448L36.7367 47.512C37.3127 47.416 37.7927 47.08 38.0327 46.552L42.9767 36.712C43.4087 35.848 43.0247 34.84 42.1607 34.408ZM45.4727 25.336C42.3047 28.504 37.2167 28.504 34.0967 25.336C30.9287 22.216 30.9287 17.128 34.0967 13.96L35.6807 12.376L47.1047 23.752L45.4727 25.336ZM50.8007 22.504L36.9287 8.68C36.5927 8.344 36.1607 8.152 35.6807 8.152C35.2007 8.152 34.7687 8.344 34.4327 8.68L31.6487 11.512C27.1367 16.024 27.1367 23.32 31.6487 27.832C33.8567 30.04 36.8327 31.192 39.7607 31.192C42.7367 31.192 45.6647 30.04 47.9207 27.832L50.7527 24.952C51.0887 24.616 51.2807 24.184 51.2807 23.752C51.2807 23.272 51.0887 22.84 50.8007 22.504Z"/>
</svg>
