<svg width="61" height="60" viewBox="0 0 61 60" xmlns="http://www.w3.org/2000/svg">
<path d="M42.4566 41.176H36.2646H25.0806H18.8406V29.368C18.8406 22.888 24.1686 17.608 30.6486 17.608C37.1766 17.608 42.4566 22.888 42.4566 29.368V41.176ZM30.6486 46.792C29.1606 46.792 27.8646 45.928 27.2406 44.68H34.1046C33.4326 45.928 32.1366 46.792 30.6486 46.792ZM32.3766 14.2V11.032C32.3766 10.072 31.5606 9.304 30.6006 9.304C29.6406 9.304 28.8726 10.072 28.8726 11.032V14.248C21.2886 15.112 15.3846 21.592 15.3846 29.368V42.952C15.3846 43.912 16.1526 44.68 17.1126 44.68H23.5926C24.3606 47.848 27.2406 50.296 30.6486 50.296C34.1046 50.296 36.9846 47.848 37.7526 44.68H44.1846C45.1446 44.68 45.9606 43.912 45.9606 42.952V29.368C45.9606 21.544 40.0086 15.064 32.3766 14.2Z"/>
</svg>
