<svg width="61" height="60" viewBox="0 0 61 60" xmlns="http://www.w3.org/2000/svg">
<path d="M50.4241 28.264L30.3601 38.296L10.2961 28.264C9.43205 27.832 8.37605 28.168 7.94405 29.032C7.51205 29.896 7.84805 30.952 8.71205 31.384L29.5921 41.8C29.8321 41.944 30.0721 41.992 30.3601 41.992C30.6001 41.992 30.8881 41.944 31.1281 41.8L52.0081 31.384C52.8241 30.952 53.2081 29.896 52.7761 29.032C52.3441 28.168 51.2881 27.832 50.4241 28.264ZM50.4241 36.952L30.3601 46.984L10.2961 36.952C9.43205 36.52 8.37605 36.856 7.94405 37.72C7.51205 38.584 7.84805 39.64 8.71205 40.072L29.5921 50.488C29.8321 50.632 30.0721 50.68 30.3601 50.68C30.6001 50.68 30.8881 50.632 31.1281 50.488L52.0081 40.072C52.8241 39.64 53.2081 38.584 52.7761 37.72C52.3441 36.856 51.2881 36.52 50.4241 36.952ZM30.3601 12.664L47.3041 21.112L30.3601 29.608L13.3681 21.112L30.3601 12.664ZM8.71205 22.696L29.5921 33.112C29.8321 33.256 30.0721 33.304 30.3601 33.304C30.6001 33.304 30.8881 33.256 31.1281 33.112L52.0081 22.696C52.5841 22.408 52.9681 21.784 52.9681 21.112C52.9681 20.488 52.5841 19.864 52.0081 19.576L31.1281 9.16C30.6481 8.92 30.0721 8.92 29.5921 9.16L8.71205 19.576C8.13605 19.864 7.75205 20.488 7.75205 21.112C7.75205 21.784 8.13605 22.408 8.71205 22.696Z"/>
</svg>
