<svg width="61" height="60" viewBox="0 0 61 60" xmlns="http://www.w3.org/2000/svg">
<path d="M40.3175 22.696H37.6775V20.104C37.6775 19.144 36.9095 18.328 35.9495 18.328C34.9895 18.328 34.2215 19.144 34.2215 20.104V22.696H31.6295C30.6695 22.696 29.8535 23.464 29.8535 24.424C29.8535 25.384 30.6695 26.152 31.6295 26.152H34.2215V28.792C34.2215 29.752 34.9895 30.52 35.9495 30.52C36.9095 30.52 37.6775 29.752 37.6775 28.792V26.152H40.3175C41.2775 26.152 42.0455 25.384 42.0455 24.424C42.0455 23.464 41.2775 22.696 40.3175 22.696ZM30.6215 45.016C30.1895 45.304 29.7575 45.592 29.3255 45.784C28.4615 46.264 28.1255 47.272 28.5575 48.136C28.8455 48.76 29.4695 49.096 30.0935 49.096C30.3815 49.096 30.6215 49.048 30.9095 48.904C31.4855 48.616 32.0615 48.28 32.5895 47.896C33.3575 47.368 33.5495 46.264 33.0215 45.496C32.4935 44.68 31.3895 44.488 30.6215 45.016ZM23.1815 47.032C22.7015 46.984 22.1735 46.888 21.6935 46.792C20.7335 46.6 19.8215 47.176 19.6295 48.136C19.4375 49.048 20.0135 50.008 20.9255 50.2C21.5975 50.344 22.2215 50.44 22.8935 50.488C22.9415 50.488 22.9895 50.488 23.0375 50.488C23.9495 50.488 24.6695 49.816 24.7655 48.904C24.8615 47.944 24.1415 47.08 23.1815 47.032ZM12.0935 29.992C12.3815 30.184 12.7175 30.28 13.0535 30.28C13.6295 30.28 14.1575 29.992 14.4935 29.464C14.7815 29.032 15.0695 28.648 15.4055 28.264C16.0295 27.496 15.9335 26.44 15.2135 25.816C14.4455 25.192 13.3895 25.288 12.7655 26.008C12.3335 26.488 11.9495 27.016 11.5655 27.592C11.0855 28.408 11.2775 29.464 12.0935 29.992ZM12.7655 36.952C12.7175 36.52 12.6695 36.088 12.6695 35.656V35.464C12.7175 34.504 11.9495 33.688 10.9895 33.688C10.9895 33.688 10.9895 33.688 10.9415 33.688C10.0295 33.688 9.26148 34.456 9.21348 35.368V35.656C9.21348 36.232 9.26148 36.808 9.30948 37.336C9.40548 38.248 10.1735 38.872 11.0375 38.872C11.0855 38.872 11.1815 38.872 11.2295 38.872C12.1895 38.776 12.8615 37.912 12.7655 36.952ZM15.1655 42.712C14.5895 41.992 13.4855 41.848 12.7175 42.472C11.9495 43.048 11.8535 44.152 12.4295 44.872C12.8615 45.4 13.2935 45.88 13.7735 46.36C14.1095 46.696 14.5415 46.84 14.9735 46.84C15.4055 46.84 15.8855 46.648 16.2215 46.312C16.8935 45.64 16.8455 44.536 16.1735 43.864C15.7895 43.48 15.4535 43.144 15.1655 42.712ZM41.6615 34.408C39.0215 35.944 35.9495 36.376 32.9735 35.56C26.9255 33.928 23.2775 27.688 24.9095 21.592C25.7255 18.616 27.5975 16.168 30.2375 14.632C32.8775 13.144 35.9495 12.712 38.9255 13.528C44.9735 15.16 48.6215 21.4 46.9895 27.496C46.1735 30.424 44.3015 32.92 41.6615 34.408ZM39.7895 10.168C35.9495 9.112 31.9655 9.64 28.5095 11.656C25.0535 13.624 22.6055 16.84 21.5495 20.68C21.5495 20.776 21.5495 20.872 21.5015 20.968H21.4535C20.7815 21.112 20.1575 21.256 19.5335 21.448C18.6215 21.736 18.0935 22.744 18.4295 23.656C18.6215 24.376 19.3415 24.856 20.0615 24.856C20.2535 24.856 20.3975 24.808 20.5895 24.76C20.7335 24.712 20.9255 24.712 21.0695 24.664C21.1175 31.192 25.4855 37.144 32.1095 38.92C33.0215 39.16 33.9335 39.304 34.8935 39.352C34.7975 39.64 34.7015 39.928 34.5575 40.216C34.2215 41.08 34.6055 42.088 35.4695 42.472C35.7095 42.568 35.9495 42.616 36.1895 42.616C36.8615 42.616 37.4855 42.232 37.7735 41.608C38.0135 40.984 38.2535 40.36 38.4455 39.736C38.4935 39.544 38.4935 39.4 38.4935 39.208C40.1735 38.92 41.8535 38.344 43.3895 37.432C46.8455 35.464 49.2935 32.248 50.3495 28.408C52.4615 20.44 47.7575 12.28 39.7895 10.168Z"/>
</svg>
