<svg width="61" height="60" viewBox="0 0 61 60" xmlns="http://www.w3.org/2000/svg">
<path d="M36.5268 43.72C35.7588 46.264 33.4068 48.04 30.7188 48.04C28.0308 48.04 25.6788 46.264 24.9108 43.72C24.1428 41.128 25.1028 38.392 27.3588 36.856C27.8388 36.568 28.1268 35.992 28.1268 35.416V32.392H29.5188C30.4788 32.392 31.2468 31.624 31.2468 30.616C31.2468 29.656 30.4788 28.888 29.5188 28.888H28.1268V25.432H29.5188C30.4788 25.432 31.2468 24.664 31.2468 23.704C31.2468 22.744 30.4788 21.928 29.5188 21.928H28.1268V18.472H29.5188C30.4788 18.472 31.2468 17.704 31.2468 16.744C31.2468 15.784 30.4788 15.016 29.5188 15.016H28.1268V14.152C28.1268 12.712 29.2788 11.512 30.7188 11.512C32.1588 11.512 33.3588 12.712 33.3588 14.152V35.416C33.3588 35.992 33.6468 36.568 34.1268 36.856C36.3348 38.392 37.3428 41.128 36.5268 43.72ZM36.8148 34.552V14.152C36.8148 10.792 34.0788 8.056 30.7188 8.056C27.3588 8.056 24.6708 10.792 24.6708 14.152V34.552C21.6948 37 20.4468 40.984 21.5988 44.728C22.7988 48.76 26.4948 51.544 30.7188 51.544C34.9908 51.544 38.6388 48.76 39.8868 44.728C40.9908 40.984 39.7908 37 36.8148 34.552Z"/>
</svg>
