<svg width="61" height="60" viewBox="0 0 61 60" xmlns="http://www.w3.org/2000/svg">
<path d="M50.3222 16.552C50.0342 15.64 49.0742 15.064 48.1622 15.352C47.2502 15.64 46.7222 16.6 46.9622 17.512C49.2182 25.384 49.2182 34.744 46.9622 42.616C46.7222 43.576 47.2502 44.536 48.1622 44.776C48.3542 44.824 48.4982 44.824 48.6422 44.824C49.4102 44.824 50.0822 44.344 50.3222 43.576C52.7222 35.128 52.7222 25 50.3222 16.552ZM12.6422 15.352C11.6822 15.112 10.7222 15.64 10.4822 16.552C8.08215 25 8.08215 35.128 10.4822 43.576C10.6742 44.344 11.3942 44.824 12.1622 44.824C12.3062 44.824 12.4502 44.824 12.6422 44.776C13.5542 44.536 14.0822 43.528 13.8422 42.616C11.5862 34.744 11.5862 25.384 13.8422 17.512C14.0822 16.6 13.5542 15.64 12.6422 15.352ZM43.8902 10.168C35.4422 7.768 25.3622 7.768 16.8662 10.168C15.9542 10.408 15.4262 11.368 15.6662 12.28C15.9542 13.192 16.9142 13.768 17.8262 13.48C25.6982 11.272 35.1062 11.272 42.9782 13.48C43.1222 13.528 43.2662 13.576 43.4102 13.576C44.1782 13.576 44.8982 13.048 45.0902 12.28C45.3782 11.368 44.8502 10.408 43.8902 10.168ZM42.9782 46.648C35.1062 48.856 25.6982 48.856 17.8262 46.648C16.9142 46.36 15.9542 46.936 15.6662 47.848C15.4262 48.76 15.9542 49.768 16.8662 50.056C21.1382 51.256 25.7462 51.832 30.4022 51.832C35.0582 51.832 39.6662 51.256 43.8902 50.056C44.8502 49.768 45.3782 48.76 45.0902 47.848C44.8502 46.936 43.8902 46.36 42.9782 46.648ZM25.2662 24.952C28.6262 24.52 32.1302 24.52 35.5382 24.952C35.9222 28.312 35.9222 31.816 35.5382 35.224C32.1302 35.608 28.6262 35.608 25.2662 35.224C24.8822 31.816 24.8822 28.312 25.2662 24.952ZM17.1542 35.224C16.8662 36.184 17.3942 37.144 18.3542 37.384C19.6022 37.72 20.8982 38.008 22.1942 38.248C22.4342 39.592 22.7222 40.888 23.0582 42.136C23.2982 42.904 24.0182 43.384 24.7382 43.384C24.9302 43.384 25.0742 43.384 25.2182 43.336C26.1302 43.048 26.7062 42.088 26.4182 41.176C26.1782 40.408 25.9862 39.592 25.8422 38.728C27.3302 38.872 28.8662 38.968 30.4022 38.968C31.9382 38.968 33.4262 38.872 34.9622 38.728C34.7702 39.592 34.5782 40.408 34.3862 41.176C34.0982 42.088 34.6262 43.048 35.5862 43.336C35.7302 43.384 35.8742 43.384 36.0182 43.384C36.7862 43.384 37.5062 42.904 37.6982 42.136C38.0822 40.888 38.3222 39.592 38.5622 38.248C39.9062 38.008 41.2022 37.72 42.4502 37.384C43.4102 37.144 43.9382 36.184 43.6502 35.224C43.4102 34.312 42.4502 33.784 41.5382 34.024C40.7222 34.264 39.9062 34.456 39.0902 34.648C39.3782 31.624 39.3782 28.504 39.0902 25.528C39.9062 25.672 40.7222 25.864 41.5382 26.104C41.6822 26.152 41.8262 26.152 41.9702 26.152C42.7382 26.152 43.4582 25.672 43.6502 24.904C43.9382 23.992 43.4102 23.032 42.4502 22.744C41.2022 22.408 39.9062 22.12 38.5622 21.88C38.3222 20.584 38.0822 19.24 37.6982 17.992C37.4582 17.08 36.4982 16.552 35.5862 16.792C34.6262 17.08 34.0982 18.04 34.3862 18.952C34.5782 19.768 34.7702 20.584 34.9622 21.4C31.9382 21.112 28.8662 21.112 25.8422 21.4C25.9862 20.584 26.2262 19.768 26.4182 18.952C26.7062 18.04 26.1302 17.08 25.2182 16.792C24.3062 16.552 23.3462 17.08 23.1062 17.992C22.7222 19.24 22.4342 20.584 22.1942 21.88C20.8982 22.12 19.6022 22.408 18.3542 22.744C17.3942 23.032 16.8662 23.992 17.1542 24.904C17.3942 25.816 18.3542 26.344 19.2662 26.104C20.0822 25.864 20.8982 25.672 21.7142 25.528C21.4262 28.504 21.4262 31.624 21.7142 34.648C20.8982 34.456 20.0822 34.264 19.2662 34.024C18.3542 33.784 17.3942 34.312 17.1542 35.224Z"/>
</svg>
