<svg width="60" height="60" viewBox="0 0 60 60" xmlns="http://www.w3.org/2000/svg">
<path d="M30.0011 26.248C28.0811 26.248 26.4971 24.712 26.4971 22.792C26.4971 20.872 28.0811 19.288 30.0011 19.288C31.9211 19.288 33.4571 20.872 33.4571 22.792C33.4571 24.712 31.9211 26.248 30.0011 26.248ZM30.0011 15.832C26.1611 15.832 23.0411 18.952 23.0411 22.792C23.0411 26.632 26.1611 29.752 30.0011 29.752C33.8411 29.752 36.9611 26.632 36.9611 22.792C36.9611 18.952 33.8411 15.832 30.0011 15.832ZM29.9531 47.848C25.4411 42.184 17.8091 30.856 17.8091 23.608C17.8091 16.456 23.2811 10.6 30.0011 10.6C36.6731 10.6 42.1451 16.456 42.1451 23.608C42.1931 31.912 32.5451 44.584 29.9531 47.848ZM30.0011 7.144C21.3611 7.144 14.3531 14.536 14.3531 23.608C14.3531 34.12 26.5451 49.192 27.9371 50.872L28.6091 51.736C28.9451 52.12 29.4251 52.456 29.9531 52.36C30.4811 52.36 30.9611 52.12 31.2971 51.736L32.0171 50.872C32.5931 50.2 45.6971 34.36 45.6491 23.608C45.6011 14.536 38.5931 7.144 30.0011 7.144Z"/>
</svg>
