<svg width="61" height="60" viewBox="0 0 61 60" xmlns="http://www.w3.org/2000/svg">
<path d="M42.6139 15.448C41.3179 15.448 40.2619 16.504 40.2619 17.848C40.2619 19.144 41.3179 20.2 42.6139 20.2C43.9579 20.2 45.0139 19.144 45.0139 17.848C45.0139 16.504 43.9579 15.448 42.6139 15.448ZM48.0859 41.944C48.0859 44.824 45.7339 47.176 42.8539 47.176H18.5179C15.6379 47.176 13.2859 44.824 13.2859 41.944V17.608C13.2859 14.728 15.6379 12.376 18.5179 12.376H31.5739H42.8539C45.7339 12.376 48.0859 14.728 48.0859 17.608V28.888V41.944ZM42.8539 8.92H31.5739H18.5179C13.7179 8.92 9.82993 12.808 9.82993 17.608V41.944C9.82993 46.744 13.7179 50.68 18.5179 50.68H42.8539C47.6539 50.68 51.5419 46.744 51.5419 41.944V28.888V17.608C51.5419 12.808 47.6539 8.92 42.8539 8.92ZM30.6619 37.576C26.3899 37.576 22.8859 34.072 22.8859 29.752C22.8859 25.48 26.3899 21.976 30.7099 21.976C30.9979 21.976 31.2859 22.024 31.5739 22.024C35.1739 22.456 38.0059 25.288 38.4379 28.888C38.4379 29.176 38.4859 29.464 38.4859 29.752C38.4859 34.072 34.9819 37.576 30.6619 37.576ZM31.5739 18.52C31.2859 18.52 30.9979 18.472 30.6619 18.472C24.4699 18.472 19.3819 23.56 19.3819 29.752C19.3819 35.992 24.4699 41.08 30.6619 41.08C36.9019 41.08 41.9899 35.992 41.9899 29.752C41.9899 29.464 41.9419 29.176 41.9419 28.888C41.5099 23.368 37.0939 18.952 31.5739 18.52Z"/>
</svg>
