<svg width="61" height="60" viewBox="0 0 61 60" xmlns="http://www.w3.org/2000/svg">
<path d="M28.3356 27.304C26.9436 28.648 26.9436 30.856 28.3356 32.2C29.6796 33.592 31.8876 33.592 33.2316 32.2C34.5756 30.856 34.5756 28.648 33.2316 27.304C31.8876 25.96 29.6796 25.96 28.3356 27.304ZM30.7836 48.904C20.2236 48.904 11.6316 40.312 11.6316 29.752C11.6316 19.24 20.2236 10.648 30.7836 10.648C41.2956 10.648 49.8876 19.24 49.8876 29.752C49.8876 40.312 41.2956 48.904 30.7836 48.904ZM30.7836 7.192C18.3036 7.192 8.17563 17.32 8.17563 29.752C8.17563 42.232 18.3036 52.408 30.7836 52.408C43.2156 52.408 53.3436 42.232 53.3436 29.752C53.3436 17.32 43.2156 7.192 30.7836 7.192ZM30.7836 36.712C25.3116 36.712 21.6636 31.96 20.3676 29.944C20.3196 29.896 20.3196 29.848 20.3676 29.848C21.6636 27.736 25.3116 22.792 30.7836 22.792C36.2556 22.792 39.8556 27.736 41.1996 29.896C39.9036 31.96 36.2556 36.712 30.7836 36.712ZM44.1276 28.024C43.8396 27.544 43.4556 26.92 42.9276 26.248C40.7196 23.368 36.6396 19.336 30.7836 19.336C24.8796 19.336 20.7996 23.368 18.5916 26.248C18.1116 26.92 17.6796 27.496 17.3916 27.976V28.024C16.6716 29.176 16.6716 30.664 17.4396 31.816C17.7276 32.248 18.1116 32.824 18.5916 33.448C20.7996 36.28 24.8796 40.216 30.7836 40.216C36.6396 40.216 40.7676 36.28 42.9276 33.448C43.4076 32.824 43.8396 32.248 44.1276 31.768C44.8476 30.664 44.8476 29.176 44.1276 28.024Z"/>
</svg>
