<svg width="60" height="60" viewBox="0 0 60 60" xmlns="http://www.w3.org/2000/svg">
<path d="M43.0749 49H38.7549V33.016H21.1869V49H16.8669V14.728H21.1869V29.224H38.7549V14.728H43.0749V49ZM32.2269 3.688C32.6109 4.392 33.1549 5.192 33.8589 6.088C34.5949 6.952 35.3469 7.816 36.1149 8.68C36.9149 9.512 37.6189 10.232 38.2269 10.84V11.368H35.2509C34.4189 10.856 33.5549 10.232 32.6589 9.496C31.7629 8.728 30.8829 7.912 30.0189 7.048C29.1549 7.912 28.2909 8.712 27.4269 9.448C26.5629 10.184 25.7149 10.824 24.8829 11.368H22.0029V10.84C22.6109 10.2 23.2829 9.464 24.0189 8.632C24.7869 7.8 25.5229 6.952 26.2269 6.088C26.9309 5.192 27.4909 4.392 27.9069 3.688H32.2269Z"/>
</svg>
