<svg width="61" height="60" viewBox="0 0 61 60" xmlns="http://www.w3.org/2000/svg">
<path d="M41.1259 31.096V26.632C43.1419 26.44 44.9659 26.2 46.4059 26.008C45.2539 27.592 43.5259 29.512 41.1259 31.096ZM14.9179 26.008C16.4059 26.2 18.2779 26.44 20.2939 26.632V31.144C17.8459 29.56 16.0699 27.592 14.9179 26.008ZM32.4379 27.208C34.1659 27.16 35.9419 27.064 37.6699 26.968V32.44C37.6699 32.632 37.7179 32.728 37.7179 32.872C36.1819 33.496 34.4059 33.928 32.4379 34.12V27.208ZM23.7499 26.968C25.4779 27.064 27.2059 27.16 28.9819 27.208V34.12C26.9659 33.976 25.2379 33.496 23.6539 32.92C23.7019 32.776 23.7499 32.632 23.7499 32.44V26.968ZM51.2059 22.696C50.7739 22.216 50.1499 21.976 49.5259 22.072C49.4299 22.072 39.1099 23.752 30.7099 23.752C22.2619 23.752 11.9899 22.072 11.8459 22.072C11.2219 21.928 10.5979 22.216 10.2139 22.696C9.82993 23.224 9.73393 23.896 9.97393 24.472C10.2139 25 15.9259 37.672 30.7099 37.672C45.4459 37.672 51.1579 25 51.3979 24.472C51.6859 23.896 51.5899 23.224 51.2059 22.696Z"/>
</svg>
