<svg width="61" height="60" viewBox="0 0 61 60" xmlns="http://www.w3.org/2000/svg">
<path d="M42.894 47.176C40.014 47.176 37.662 44.824 37.662 41.944C37.662 39.064 40.014 36.712 42.894 36.712C45.774 36.712 48.126 39.064 48.126 41.944C48.126 44.824 45.774 47.176 42.894 47.176ZM25.518 34.984C25.518 29.224 30.174 24.568 35.934 24.568C41.358 24.568 45.774 28.696 46.302 33.976C45.246 33.496 44.094 33.256 42.894 33.256C38.094 33.256 34.206 37.144 34.206 41.944C34.206 43.144 34.446 44.296 34.926 45.352C29.646 44.824 25.518 40.408 25.518 34.984ZM13.326 29.8C13.326 20.2 21.15 12.376 30.702 12.376C39.774 12.376 47.214 19.336 48.03 28.12C45.63 23.944 41.118 21.064 35.934 21.064C28.254 21.064 22.014 27.304 22.014 34.984C22.014 40.168 24.894 44.68 29.07 47.08C20.286 46.264 13.326 38.824 13.326 29.8ZM51.582 29.8C51.582 18.28 42.222 8.92 30.702 8.92C19.23 8.92 9.86997 18.28 9.86997 29.8C9.86997 41.272 19.23 50.68 30.702 50.68C33.294 50.68 35.79 50.2 38.19 49.288C39.534 50.152 41.166 50.68 42.894 50.68C47.694 50.68 51.582 46.744 51.582 41.944C51.582 40.216 51.054 38.584 50.19 37.24C51.102 34.84 51.582 32.344 51.582 29.8Z"/>
</svg>
