<svg width="61" height="60" viewBox="0 0 61 60" xmlns="http://www.w3.org/2000/svg">
<path d="M27.9339 27.304C26.5899 28.696 26.5899 30.856 27.9339 32.248C29.3259 33.592 31.4859 33.592 32.8779 32.248C34.2219 30.856 34.2219 28.696 32.8779 27.304C31.4859 25.96 29.3259 25.96 27.9339 27.304ZM46.7499 18.328C46.5099 18.568 46.2219 18.76 45.9339 18.904C45.7419 19 45.5499 19.096 45.3579 19.144C45.0699 19.24 44.7339 19.288 44.3979 19.288C44.3499 19.288 44.3019 19.336 44.2539 19.336C44.0619 19.288 43.8699 19.288 43.6299 19.24C43.3899 19.192 43.1979 19.144 42.9579 19.048C42.8619 19 42.7659 18.952 42.6219 18.904C42.6219 18.856 42.5739 18.856 42.5739 18.856C42.3339 18.712 42.0459 18.568 41.8539 18.328C41.6619 18.136 41.4699 17.848 41.3259 17.608C41.3259 17.56 41.2779 17.512 41.2299 17.464C41.2299 17.416 41.1819 17.368 41.1339 17.32C41.0379 17.032 40.9419 16.696 40.8939 16.36C40.8939 16.312 40.8459 16.216 40.8459 16.168C40.8459 15.832 40.8459 15.496 40.8939 15.16C40.8939 15.16 40.9419 15.112 40.9419 15.064C40.9899 14.776 41.1339 14.44 41.3259 14.152C41.4699 13.912 41.6139 13.624 41.8539 13.432C42.5259 12.76 43.3899 12.376 44.3019 12.376C45.2139 12.376 46.1259 12.76 46.7499 13.432C47.4219 14.056 47.8059 14.968 47.8059 15.88C47.8059 16.792 47.4219 17.656 46.7499 18.328ZM30.4299 47.176C20.8299 47.176 13.0059 39.352 13.0059 29.8C13.0059 20.2 20.8299 12.376 30.4299 12.376C32.9259 12.376 35.3739 12.952 37.6299 13.96C37.5819 14.152 37.5339 14.296 37.5339 14.488C37.4859 14.536 37.4859 14.536 37.4859 14.584C37.3419 15.448 37.3419 16.312 37.4859 17.128C37.4859 17.176 37.4859 17.224 37.4859 17.272C37.5339 17.368 37.5819 17.512 37.6299 17.608C37.7739 18.28 38.0619 18.952 38.4459 19.576C38.4939 19.672 38.5419 19.72 38.5899 19.816C38.8299 20.152 39.0699 20.488 39.4059 20.776C39.6939 21.064 40.0299 21.352 40.3179 21.544C40.4139 21.64 40.5099 21.688 40.6059 21.736C40.8939 21.928 41.2299 22.072 41.5179 22.216C41.5659 22.264 41.6139 22.312 41.7099 22.312C41.9979 22.408 42.2859 22.504 42.5739 22.6C42.6699 22.6 42.7659 22.648 42.8139 22.648C42.9099 22.696 43.0059 22.696 43.1019 22.696C43.4859 22.792 43.8699 22.84 44.2539 22.84H44.3019C44.3019 22.84 44.3019 22.84 44.3499 22.84C44.7339 22.84 45.1659 22.792 45.5499 22.696C45.6459 22.696 45.7419 22.648 45.8379 22.648C45.9819 22.6 46.0779 22.6 46.2219 22.552C47.2299 24.808 47.8059 27.304 47.8059 29.8C47.8059 39.352 39.9819 47.176 30.4299 47.176ZM49.1979 20.824C49.1979 20.824 49.1979 20.776 49.2459 20.776C51.9339 18.088 51.9339 13.672 49.2459 10.936C47.9019 9.64 46.1739 8.92 44.3019 8.92C42.4779 8.92 40.7019 9.64 39.4059 10.936C39.4059 10.984 39.3579 10.984 39.3579 10.984C36.5739 9.64 33.5019 8.92 30.4299 8.92C18.9099 8.92 9.5499 18.28 9.5499 29.8C9.5499 41.272 18.9099 50.68 30.4299 50.68C41.9019 50.68 51.2619 41.272 51.2619 29.8C51.2619 26.68 50.5419 23.608 49.1979 20.824Z"/>
</svg>
