<svg width="61" height="60" viewBox="0 0 61 60" xmlns="http://www.w3.org/2000/svg">
<path d="M23.5821 35.512C22.9581 34.84 21.8541 34.744 21.1341 35.368C20.4141 36.04 20.3181 37.096 20.9901 37.816C21.4221 38.344 21.9021 38.824 22.4301 39.256C22.7661 39.496 23.1501 39.64 23.5341 39.64C24.0141 39.64 24.5421 39.4 24.8781 38.968C25.5021 38.248 25.3581 37.144 24.6381 36.52C24.2541 36.232 23.9181 35.896 23.5821 35.512ZM18.0141 31.144C18.1101 32.056 18.8301 32.728 19.7421 32.728C19.7901 32.728 19.8381 32.728 19.9341 32.68C20.8461 32.584 21.5661 31.72 21.4701 30.76L21.4221 30.472C21.4221 30.232 21.3741 29.992 21.3741 29.752C21.3741 29.608 21.4221 29.464 21.4221 29.32C21.4701 28.36 20.7021 27.544 19.7421 27.496C18.8301 27.496 17.9661 28.168 17.9181 29.128C17.9181 29.368 17.9181 29.56 17.9181 29.752C17.9181 30.088 17.9181 30.424 17.9661 30.712L18.0141 31.144ZM21.8541 25.096C22.3821 25.096 22.9101 24.856 23.2461 24.424C23.5341 24.04 23.8701 23.704 24.2061 23.368C24.9261 22.744 24.9741 21.64 24.3021 20.92C23.6781 20.2 22.5741 20.152 21.8541 20.824C21.3741 21.256 20.8941 21.784 20.5101 22.312C19.8861 23.08 20.0301 24.136 20.7981 24.76C21.0861 25 21.4701 25.096 21.8541 25.096ZM28.7181 21.16C28.7661 21.16 28.8621 21.16 28.9101 21.16C29.1021 21.16 29.2461 21.112 29.3901 21.112C29.6301 21.112 29.8701 21.064 30.1101 21.064L30.3981 21.112C31.3581 21.064 32.1261 20.344 32.1741 19.384C32.2221 18.424 31.4541 17.656 30.4941 17.608H30.1101C29.7741 17.608 29.4381 17.608 29.1501 17.656C28.9101 17.656 28.7181 17.704 28.4781 17.704C27.5181 17.848 26.8461 18.712 26.9901 19.672C27.0861 20.536 27.8541 21.16 28.7181 21.16ZM36.7341 35.368C36.4461 35.752 36.1101 36.088 35.7261 36.376C35.0061 37 34.9101 38.104 35.5341 38.824C35.8701 39.256 36.3501 39.448 36.8781 39.448C37.2621 39.448 37.6461 39.304 37.9821 39.016C38.5101 38.584 38.9901 38.104 39.4221 37.576C40.0461 36.856 39.9501 35.752 39.1821 35.128C38.4621 34.552 37.3581 34.648 36.7341 35.368ZM38.7021 28.456C38.7021 28.696 38.7501 28.888 38.7501 29.08C38.7501 29.32 38.7981 29.56 38.7981 29.8C38.7981 30.04 38.7501 30.28 38.7501 30.568C38.6541 31.528 39.3741 32.344 40.3341 32.44C40.3821 32.44 40.4301 32.44 40.4781 32.44C41.3901 32.44 42.1101 31.768 42.2061 30.856C42.2541 30.472 42.2541 30.136 42.2541 29.8C42.2541 29.464 42.2541 29.128 42.2061 28.84C42.2061 28.552 42.1581 28.264 42.1101 27.928C41.9661 27.016 41.1021 26.344 40.1421 26.488C39.1821 26.632 38.5581 27.544 38.7021 28.456ZM30.7821 38.44C30.3501 38.488 29.9181 38.488 29.4861 38.44C28.4781 38.392 27.7101 39.112 27.6141 40.072C27.5661 41.032 28.2861 41.848 29.2461 41.896C29.4861 41.944 29.7741 41.944 30.0621 41.944C30.3981 41.944 30.7341 41.944 31.0221 41.896H31.2621C32.2221 41.8 32.7981 40.936 32.7501 40.024C32.6541 39.064 31.7421 38.392 30.7821 38.44ZM36.3981 23.8C36.7341 24.136 37.1661 24.328 37.6461 24.328C38.0781 24.328 38.5101 24.184 38.8461 23.848C39.5181 23.176 39.5661 22.072 38.8941 21.4C38.4621 20.92 37.9341 20.44 37.4061 20.056C36.6381 19.48 35.5341 19.624 34.9581 20.392C34.3821 21.16 34.5261 22.264 35.2941 22.84C35.6781 23.128 36.0621 23.416 36.3981 23.8ZM47.4861 47.176H12.6861V12.376H47.4861V47.176ZM49.2141 8.92H10.9581C9.99808 8.92 9.23008 9.688 9.23008 10.648V48.904C9.23008 49.912 9.99808 50.68 10.9581 50.68H49.2141C50.1741 50.68 50.9421 49.912 50.9421 48.904V10.648C50.9421 9.688 50.1741 8.92 49.2141 8.92Z"/>
</svg>
