<svg width="61" height="60" viewBox="0 0 61 60" xmlns="http://www.w3.org/2000/svg">
<path d="M49.8876 48.904H42.9276V40.216V31.48H49.8876V48.904ZM32.5116 41.944H39.4716V48.904H32.5116V41.944ZM11.6316 10.648H29.0556V29.752V40.216V48.904H11.6316V10.648ZM39.4716 38.44H32.5116V31.48H39.4716V38.44ZM49.8876 10.648V28.024H41.1996H32.5116V10.648H49.8876ZM51.6156 7.192H30.7836H9.90363C8.94363 7.192 8.17563 7.96 8.17563 8.92V50.68C8.17563 51.64 8.94363 52.408 9.90363 52.408H30.7836H41.1996H51.6156C52.5756 52.408 53.3436 51.64 53.3436 50.68V29.752V8.92C53.3436 7.96 52.5756 7.192 51.6156 7.192Z"/>
</svg>
