<svg width="61" height="60" viewBox="0 0 61 60" xmlns="http://www.w3.org/2000/svg">
<path d="M30.8635 48.904C21.5515 48.904 13.7755 42.184 12.0955 33.352C17.3755 36.712 23.3755 38.44 29.9515 38.44C36.7195 38.44 43.3435 36.616 49.6795 33.064C48.0955 42.04 40.2715 48.904 30.8635 48.904ZM30.8635 10.648C36.6235 10.648 41.7595 13.24 45.2635 17.272C40.3675 19.768 35.2315 21.064 29.9515 21.064C24.7675 21.064 20.1595 19.864 16.2715 17.416C19.7755 13.288 25.0075 10.648 30.8635 10.648ZM49.9195 28.84C43.5355 32.92 36.8155 34.984 29.9515 34.984C23.1355 34.984 17.0395 32.92 11.7595 28.936C11.9035 25.768 12.8155 22.84 14.2555 20.248C18.7675 23.128 24.0475 24.568 29.9515 24.568C35.9515 24.568 41.8075 23.032 47.3275 20.104C48.8635 22.696 49.7755 25.672 49.9195 28.84ZM30.8635 7.192C18.3835 7.192 8.25547 17.32 8.25547 29.752C8.25547 42.232 18.3835 52.408 30.8635 52.408C43.2955 52.408 53.4235 42.232 53.4235 29.752C53.4235 17.32 43.2955 7.192 30.8635 7.192Z"/>
</svg>
