<svg width="61" height="60" viewBox="0 0 61 60" xmlns="http://www.w3.org/2000/svg">
<path d="M45.4932 44.344C45.3972 44.536 45.2532 44.68 45.0132 44.824C44.8212 44.92 44.5812 44.92 44.3892 44.872C44.3412 44.872 44.1012 44.824 43.9092 44.44L39.0132 34.504H22.0692L17.1252 44.44C16.9332 44.824 16.7412 44.872 16.6452 44.872C16.5012 44.92 16.2612 44.92 16.0212 44.824C15.8292 44.68 15.6372 44.536 15.5892 44.344C15.5412 44.248 15.4452 44.056 15.6372 43.624L29.7012 15.304L29.8452 15.064C30.0852 14.584 30.3252 14.584 30.4212 14.632H30.5172H30.6132C30.7572 14.584 30.9972 14.584 31.2852 15.16L40.0212 32.824L40.2132 33.112C40.3092 33.208 40.3572 33.304 40.4052 33.448L45.3972 43.624C45.5892 44.056 45.5412 44.248 45.4932 44.344ZM48.5172 42.088L43.6692 32.344C43.5732 31.912 43.3332 31.48 43.0932 31.144L34.5012 13.816C34.4052 13.672 34.3572 13.528 34.3092 13.48C33.5412 11.944 32.1012 11.08 30.5172 11.128C28.9332 11.128 27.4932 11.944 26.7732 13.432C26.6772 13.576 26.6292 13.72 26.5812 13.768L12.5172 42.088C11.9412 43.24 11.8932 44.488 12.3252 45.64C12.7572 46.6 13.4772 47.416 14.4852 47.896C15.4932 48.424 16.5972 48.52 17.6052 48.232C18.7572 47.944 19.6692 47.128 20.2452 45.976L24.2292 37.96H36.8532L40.7892 45.976C41.3652 47.128 42.3252 47.944 43.4772 48.232C43.8132 48.328 44.1972 48.376 44.5812 48.376C45.2532 48.376 45.9252 48.232 46.5492 47.896C48.4692 46.984 49.7652 44.632 48.5172 42.088ZM28.5012 29.32L30.5172 25.24L32.5332 29.32H28.5012ZM22.9332 32.776H38.1492L30.5172 17.416L22.9332 32.776Z"/>
</svg>
