<svg width="60" height="60" viewBox="0 0 60 60"  xmlns="http://www.w3.org/2000/svg">
<path d="M46.5836 39.208V35.704C46.5836 35.368 46.5836 35.032 46.5836 34.744L46.5356 34.552V34.504C45.8156 25.576 38.7116 18.568 30.0716 18.568C20.9516 18.568 13.5116 26.344 13.5116 35.944C13.5116 35.944 13.5116 35.944 13.5116 35.992V39.4C11.8796 36.568 10.8716 33.256 10.8716 29.752C10.8716 19.24 19.4636 10.648 30.0236 10.648C40.5356 10.648 49.1276 19.24 49.1276 29.752C49.1276 33.208 48.2156 36.424 46.5836 39.208ZM17.0636 34.792C17.6396 27.64 23.2556 22.024 30.0716 22.024C36.2636 22.024 41.4956 26.68 42.7916 32.92C39.9596 32.776 37.1756 31.768 34.8716 29.944C34.1516 29.368 33.0476 29.464 32.4716 30.232C29.7356 33.544 25.7036 35.464 21.4316 35.464C19.9436 35.464 18.4556 35.224 17.0636 34.792ZM17.0156 39.736V38.392C18.4556 38.776 19.8956 38.968 21.4316 38.968C26.2316 38.968 30.7436 37.048 34.0556 33.64C36.7916 35.416 39.8636 36.376 43.1276 36.472V39.784C43.1276 41.224 42.8876 42.712 42.5036 44.2C39.1436 47.128 34.7756 48.904 30.0236 48.904C25.3196 48.904 20.9996 47.176 17.6396 44.344C17.2556 42.808 17.0156 41.224 17.0156 39.736ZM50.8556 21.064C48.5516 15.592 44.1836 11.224 38.6636 8.92C36.0236 7.816 33.0956 7.192 30.0236 7.192C26.9516 7.192 24.0236 7.816 21.3356 8.92C15.8636 11.224 11.4476 15.592 9.14363 21.112C8.03963 23.752 7.41563 26.68 7.41563 29.752C7.41563 32.824 8.03963 35.752 9.14363 38.44C10.3916 41.416 12.2636 44.056 14.5676 46.216C14.6156 46.264 14.6156 46.264 14.6636 46.312C16.2476 47.752 18.0236 49.048 19.9916 50.008C19.9916 50.056 20.0396 50.056 20.0876 50.056C20.4716 50.296 20.9036 50.488 21.3356 50.68C24.0236 51.784 26.9516 52.408 30.0236 52.408C33.0956 52.408 36.0236 51.784 38.6636 50.68C39.1436 50.488 39.6236 50.248 40.1036 50.008L40.1516 49.96C42.1196 48.904 43.9436 47.656 45.5276 46.168C45.5276 46.12 45.5756 46.12 45.5756 46.072C47.8316 43.96 49.6556 41.368 50.8556 38.44C51.9596 35.752 52.5836 32.824 52.5836 29.752C52.5836 26.68 51.9596 23.752 50.8556 21.064Z" />
</svg>
