<svg width="60" height="60" viewBox="0 0 60 60"  xmlns="http://www.w3.org/2000/svg">
<path d="M35.1585 30.232C34.8225 30.376 34.4865 30.52 34.1985 30.808C33.1905 31.816 33.1905 33.496 34.1985 34.504C34.4865 34.792 34.8225 34.984 35.1585 35.08C36.0705 35.416 37.1265 35.224 37.8945 34.504C38.9025 33.496 38.9025 31.816 37.8945 30.808C37.1265 30.088 36.0705 29.896 35.1585 30.232ZM24.7425 30.232C23.8305 29.896 22.7745 30.088 22.0065 30.808C20.9985 31.816 20.9985 33.496 22.0065 34.504C22.7745 35.224 23.8305 35.416 24.7425 35.08C25.0785 34.984 25.4145 34.792 25.7025 34.504C26.7105 33.496 26.7105 31.816 25.7025 30.808C25.4145 30.52 25.0785 30.328 24.7425 30.232ZM43.0785 29.848C43.0785 34.84 40.4385 40.408 37.0305 43.96C34.8225 46.264 32.3265 47.752 30.0225 47.752C27.6705 47.752 25.1745 46.264 22.9665 43.96C19.5585 40.408 16.9185 34.84 16.9185 29.848V27.64C18.4545 28.12 20.0865 28.36 21.7185 28.36C22.7265 28.36 23.7345 28.216 24.7425 28.072C28.1505 27.4 31.3185 25.672 33.6705 23.032C34.1505 23.368 34.6785 23.656 35.1585 23.944C37.5585 25.24 40.1985 26.008 42.9825 26.008C42.9825 26.008 43.0305 26.008 43.0785 26.008V29.848ZM45.9585 21.352C44.0865 13.912 37.6545 8.392 30.0225 8.392C22.3425 8.392 15.9105 13.912 14.0385 21.352C13.6545 22.792 13.4625 24.28 13.4625 25.864V29.848C13.4625 34.504 15.4305 39.784 18.5025 43.96C21.5745 48.184 25.7025 51.208 30.0225 51.208C34.2945 51.208 38.4225 48.184 41.4945 43.96C44.5665 39.784 46.5345 34.504 46.5345 29.848V25.864C46.5345 24.28 46.3425 22.792 45.9585 21.352Z" />
</svg>
