<svg width="60" height="60" viewBox="0 0 60 60"  xmlns="http://www.w3.org/2000/svg">
<path d="M35.1585 30.232C34.8225 30.376 34.4865 30.52 34.1985 30.808C33.1905 31.816 33.1905 33.496 34.1985 34.504C34.4865 34.792 34.8225 34.984 35.1585 35.08C36.0705 35.416 37.1265 35.224 37.8945 34.504C38.9025 33.496 38.9025 31.816 37.8945 30.808C37.1265 30.088 36.0705 29.896 35.1585 30.232ZM24.7425 30.232C23.8305 29.896 22.7745 30.088 22.0065 30.808C20.9985 31.816 20.9985 33.496 22.0065 34.504C22.7745 35.224 23.8305 35.416 24.7425 35.08C25.0785 34.984 25.4145 34.792 25.7025 34.504C26.7105 33.496 26.7105 31.816 25.7025 30.808C25.4145 30.52 25.0785 30.328 24.7425 30.232ZM30.0225 11.896C35.7345 11.896 40.6305 15.88 42.3585 21.352C42.5025 21.832 42.6465 22.312 42.7425 22.792C40.8705 22.696 38.9985 22.216 37.3185 21.352C36.4545 20.92 35.5905 20.44 34.8225 19.816C34.0545 19.24 32.9985 19.336 32.4225 20.104C32.0385 20.536 31.6065 20.968 31.2225 21.352C29.3985 23.128 27.1425 24.328 24.7425 24.904C23.6385 25.192 22.5345 25.336 21.3825 25.336C19.8465 25.336 18.4065 25.096 17.0145 24.616C17.0625 23.512 17.3025 22.408 17.6385 21.352C19.3665 15.88 24.2625 11.896 30.0225 11.896ZM36.9825 43.96C35.3025 45.688 33.4785 46.936 31.7025 47.464C31.1265 47.608 30.5505 47.752 30.0225 47.752C29.4945 47.752 28.9665 47.608 28.4385 47.512C26.5665 46.984 24.7425 45.736 23.0145 43.96C19.6065 40.36 16.9185 34.696 16.9185 29.608V28.264C18.3585 28.648 19.8465 28.792 21.3825 28.792C22.4865 28.792 23.6385 28.696 24.7425 28.504C28.2465 27.784 31.4625 26.104 34.0065 23.512C34.3905 23.752 34.7745 23.944 35.1585 24.136C37.6065 25.48 40.2465 26.248 43.0785 26.296V29.656C43.0305 34.696 40.3905 40.36 36.9825 43.96ZM46.4865 24.616V24.424C46.4865 24.376 46.4865 24.376 46.4865 24.376C46.3905 23.32 46.1985 22.312 45.9585 21.352C44.0865 13.912 37.6545 8.392 30.0225 8.392C22.3425 8.392 15.9105 13.912 14.0385 21.352C13.6545 22.792 13.4625 24.28 13.4625 25.816V29.608V29.848C13.4625 34.504 15.4305 39.784 18.5025 43.96C21.0465 47.464 24.3585 50.104 27.8145 50.92C28.5345 51.112 29.2545 51.208 30.0225 51.208C30.7905 51.208 31.5585 51.064 32.3265 50.872C35.7345 50.008 38.9985 47.416 41.4945 43.96C44.5665 39.784 46.5345 34.504 46.5345 29.848V29.656C46.5345 29.608 46.5345 29.608 46.5345 29.608V25.528C46.5345 25.24 46.5345 24.904 46.4865 24.616Z" />
</svg>
