<svg width="60" height="60" viewBox="0 0 60 60"  xmlns="http://www.w3.org/2000/svg">
<path d="M37.3185 25.864H22.5825C21.6225 25.864 20.8545 26.632 20.8545 27.592C20.8545 28.552 21.6225 29.32 22.5825 29.32H37.3185C38.2785 29.32 39.0465 28.552 39.0465 27.592C39.0465 26.632 38.2785 25.864 37.3185 25.864ZM43.0785 29.848C43.0785 38.056 35.9745 47.752 30.0225 47.752C24.0225 47.752 16.9185 38.056 16.9185 29.848V25.864C16.9185 18.136 22.8225 11.896 30.0225 11.896C37.2225 11.896 43.0785 18.136 43.0785 25.864V29.848ZM30.0225 8.392C20.9025 8.392 13.4625 16.216 13.4625 25.864V29.848C13.4625 39.16 21.4785 51.208 30.0225 51.208C38.5185 51.208 46.5345 39.16 46.5345 29.848V25.864C46.5345 16.216 39.0945 8.392 30.0225 8.392Z" />
</svg>
