<svg width="60" height="60" viewBox="0 0 60 60"  xmlns="http://www.w3.org/2000/svg">
<path d="M43.0785 29.848C43.0785 34.12 41.1105 38.824 38.4225 42.328C35.9745 45.496 32.8545 47.752 30.0225 47.752C27.1425 47.752 24.0225 45.496 21.5745 42.328C18.8865 38.824 16.9185 34.12 16.9185 29.848V29.272V25.864C16.9185 22.12 18.3105 18.76 20.5665 16.216C22.9185 13.576 26.2785 11.896 30.0225 11.896C33.7185 11.896 37.0785 13.576 39.4305 16.216C41.6865 18.76 43.0785 22.12 43.0785 25.864V29.128C43.0305 28.888 42.8865 28.648 42.6945 28.552L35.7345 24.184C35.4465 24.04 35.1105 23.992 34.8705 24.184C34.5825 24.328 34.3905 24.616 34.3905 24.904V27.544H33.4305H26.5665H25.6065V24.904C25.6065 24.616 25.4625 24.328 25.1745 24.184C24.8865 23.992 24.5505 24.04 24.3105 24.184L17.3505 28.552C17.1105 28.696 16.9185 28.984 16.9185 29.272C16.9185 29.56 17.1105 29.848 17.3505 29.992L24.3105 34.36C24.4545 34.456 24.5985 34.504 24.7425 34.504C24.8865 34.504 25.0305 34.456 25.1745 34.36C25.4625 34.216 25.6065 33.928 25.6065 33.64V31H26.5665H33.4305H34.3905V33.64C34.3905 33.928 34.5825 34.216 34.8705 34.36C34.9665 34.456 35.1105 34.504 35.2545 34.504C35.4465 34.504 35.5905 34.456 35.7345 34.36L42.6945 29.992C42.8865 29.896 43.0305 29.656 43.0785 29.416V29.848ZM43.7985 16.216C40.8225 11.512 35.7345 8.392 30.0225 8.392C24.2625 8.392 19.1745 11.512 16.1985 16.216C14.4705 19 13.4625 22.312 13.4625 25.864V29.848C13.4625 33.88 14.9505 38.44 17.3985 42.328C20.5185 47.368 25.1745 51.208 30.0225 51.208C34.8225 51.208 39.4785 47.368 42.6465 42.328C45.0465 38.44 46.5345 33.88 46.5345 29.848V25.864C46.5345 22.312 45.5265 19 43.7985 16.216Z" />
</svg>
