<svg width="60" height="60" viewBox="0 0 60 60"  xmlns="http://www.w3.org/2000/svg">
<path d="M31.7025 25.864V24.904H34.3425C34.6305 24.904 34.9185 24.76 35.0625 24.472C35.2545 24.184 35.2065 23.848 35.0625 23.608L30.6945 16.648C30.4065 16.12 29.5425 16.12 29.2545 16.648L24.8865 23.608C24.7425 23.848 24.6945 24.184 24.8865 24.472C25.0305 24.76 25.3185 24.904 25.6065 24.904H28.2465V25.864V32.728V33.688H25.6065C25.3185 33.688 25.0305 33.88 24.8865 34.168C24.6945 34.408 24.7425 34.744 24.8865 35.032L29.2545 41.992C29.3985 42.232 29.6865 42.376 29.9745 42.376C30.2625 42.376 30.5505 42.232 30.6945 41.992L35.0625 35.032C35.2065 34.744 35.2545 34.408 35.0625 34.168C34.9185 33.88 34.6305 33.688 34.3425 33.688H31.7025V32.728V25.864ZM42.7905 32.728C41.4465 40.168 35.3025 47.752 30.0225 47.752C24.6945 47.752 18.5985 40.168 17.2065 32.728C17.0625 31.768 16.9185 30.808 16.9185 29.848V25.864C16.9185 18.136 22.7745 11.896 30.0225 11.896C36.8385 11.896 42.4545 17.56 43.0305 24.712V25.864V30.856C42.9825 31.48 42.8865 32.104 42.7905 32.728ZM43.0305 15.112C39.9585 11.032 35.3025 8.392 30.0225 8.392H29.9745C24.6945 8.392 19.9425 11.08 16.9185 15.208C14.7585 18.136 13.4625 21.832 13.4625 25.864V29.848C13.4625 33.64 14.8065 37.864 16.9185 41.56C19.1745 45.4 22.2945 48.664 25.7505 50.2C27.1425 50.824 28.5345 51.208 30.0225 51.208C31.4625 51.208 32.9025 50.824 34.2465 50.2C37.7025 48.664 40.7745 45.448 43.0305 41.656C45.1905 37.912 46.5345 33.688 46.5345 29.848V25.864C46.5345 21.784 45.1905 18.088 43.0305 15.112Z" />
</svg>
