<svg width="60" height="60" viewBox="0 0 60 60"  xmlns="http://www.w3.org/2000/svg">
<path d="M21.2865 41.992C18.7425 38.488 16.9185 33.976 16.9185 29.848V25.864C16.9185 21.736 18.6465 17.992 21.2865 15.448C23.6385 13.24 26.6625 11.896 30.0225 11.896V47.752C27.0465 47.752 23.8305 45.352 21.2865 41.992ZM30.0225 8.392C26.8065 8.392 23.8305 9.4 21.2865 11.032C16.6305 14.104 13.4625 19.576 13.4625 25.864V29.848C13.4625 35.8 16.7265 42.856 21.2865 47.176C23.9265 49.624 26.9025 51.208 30.0225 51.208C38.5185 51.208 46.5345 39.16 46.5345 29.848V25.864C46.5345 16.216 39.0945 8.392 30.0225 8.392Z" />
</svg>
