<svg width="60" height="60" viewBox="0 0 60 60"  xmlns="http://www.w3.org/2000/svg">
<path d="M33.4305 35.272H31.6545V26.584C31.6545 25.624 30.8865 24.856 29.9265 24.856C28.9665 24.856 28.1985 25.624 28.1985 26.584V35.272H26.4705C25.5105 35.272 24.7425 36.04 24.7425 37C24.7425 37.96 25.5105 38.728 26.4705 38.728H33.4305C34.3905 38.728 35.1585 37.96 35.1585 37C35.1585 36.04 34.3905 35.272 33.4305 35.272ZM43.0785 29.848C43.0785 38.056 35.9745 47.752 30.0225 47.752C24.0225 47.752 16.9185 38.056 16.9185 29.848V25.864C16.9185 18.136 22.7745 11.896 30.0225 11.896C37.2225 11.896 43.0785 18.136 43.0785 25.864V29.848ZM30.0225 8.392C20.9025 8.392 13.4625 16.216 13.4625 25.864V29.848C13.4625 39.16 21.4785 51.208 30.0225 51.208C38.5185 51.208 46.5345 39.16 46.5345 29.848V25.864C46.5345 16.216 39.0945 8.392 30.0225 8.392Z" />
</svg>
