<svg width="60" height="60" viewBox="0 0 60 60"  xmlns="http://www.w3.org/2000/svg">
<path d="M40.0556 45.976C39.3356 39.016 40.3916 33.64 40.3916 33.592C40.4396 33.496 40.3916 33.448 40.3916 33.4C43.5596 29.656 45.8636 24.664 46.4396 20.008C48.1196 22.888 49.1276 26.2 49.1276 29.752C49.1276 36.616 45.4796 42.616 40.0556 45.976ZM23.5436 36.904C25.5596 38.344 27.7676 39.208 30.0236 39.208C32.2796 39.208 34.4396 38.344 36.5036 36.952C36.2636 39.64 36.2156 43.384 36.7436 47.608C34.6796 48.424 32.3756 48.904 30.0236 48.904C27.6236 48.904 25.3676 48.424 23.2556 47.608C23.8316 43.336 23.7356 39.592 23.5436 36.904ZM30.0236 10.648C35.0636 10.648 39.6716 12.664 43.0796 15.88V17.848C43.0796 26.008 36.0236 35.704 30.0236 35.704C24.0716 35.704 16.9676 26.008 16.9676 17.848V15.832C20.3756 12.616 24.9836 10.648 30.0236 10.648ZM13.6556 19.96C14.1836 24.568 16.4396 29.56 19.6076 33.304C19.6076 33.4 19.6076 33.496 19.6076 33.592C19.6076 33.64 20.6636 39.016 19.9436 45.976C14.5196 42.616 10.8716 36.616 10.8716 29.752C10.8716 26.152 11.9276 22.84 13.6556 19.96ZM50.8556 21.112C50.3756 19.912 49.7996 18.808 49.1276 17.8C48.3596 16.6 47.5436 15.496 46.5836 14.44C45.4316 13.24 44.2316 12.136 42.8396 11.224C41.5436 10.312 40.1516 9.544 38.6636 8.92C36.0236 7.816 33.0956 7.192 30.0236 7.192C26.9516 7.192 24.0236 7.816 21.3356 8.92C19.8956 9.496 18.5036 10.264 17.2076 11.176C15.8636 12.088 14.6156 13.192 13.5116 14.392C12.5036 15.448 11.6396 16.552 10.8716 17.8C10.2476 18.808 9.62363 19.912 9.14363 21.112C8.03963 23.752 7.41563 26.68 7.41563 29.752C7.41563 32.824 8.03963 35.752 9.14363 38.44C9.62363 39.592 10.2476 40.696 10.8716 41.752C13.1276 45.256 16.2476 48.136 19.9916 50.056C20.4716 50.248 20.8556 50.488 21.3356 50.68C24.0236 51.784 26.9516 52.408 30.0236 52.408C33.0956 52.408 36.0236 51.784 38.6636 50.68C38.6636 50.68 38.6636 50.68 38.7116 50.68C39.1436 50.488 39.5756 50.248 40.0076 50.056C43.7516 48.136 46.9196 45.256 49.1276 41.752C49.7996 40.696 50.3756 39.592 50.8556 38.44C51.9596 35.752 52.5836 32.824 52.5836 29.752C52.5836 26.68 51.9596 23.752 50.8556 21.112Z" />
</svg>
