<svg width="61" height="61" viewBox="0 0 61 61" xmlns="http://www.w3.org/2000/svg">
<path d="M50.3132 28.9105L30.2492 38.9425L10.1852 28.9105C9.32121 28.4785 8.26521 28.8145 7.83321 29.6785C7.40121 30.5425 7.73721 31.5985 8.60121 32.0305L29.4812 42.4465C29.7212 42.5905 29.9612 42.6385 30.2492 42.6385C30.4892 42.6385 30.7772 42.5905 31.0172 42.4465L51.8972 32.0305C52.7132 31.5985 53.0972 30.5425 52.6652 29.6785C52.2332 28.8145 51.1772 28.4785 50.3132 28.9105ZM50.3132 37.5985L30.2492 47.6305L10.1852 37.5985C9.32121 37.1665 8.26521 37.5025 7.83321 38.3665C7.40121 39.2305 7.73721 40.2865 8.60121 40.7185L29.4812 51.1345C29.7212 51.2785 29.9612 51.3265 30.2492 51.3265C30.4892 51.3265 30.7772 51.2785 31.0172 51.1345L51.8972 40.7185C52.7132 40.2865 53.0972 39.2305 52.6652 38.3665C52.2332 37.5025 51.1772 37.1665 50.3132 37.5985ZM30.2492 13.3105L47.1932 21.7585L30.2492 30.2545L13.2572 21.7585L30.2492 13.3105ZM8.60121 23.3425L29.4812 33.7585C29.7212 33.9025 29.9612 33.9505 30.2492 33.9505C30.4892 33.9505 30.7772 33.9025 31.0172 33.7585L51.8972 23.3425C52.4732 23.0545 52.8572 22.4305 52.8572 21.7585C52.8572 21.1345 52.4732 20.5105 51.8972 20.2225L31.0172 9.80654C30.5372 9.56654 29.9612 9.56654 29.4812 9.80654L8.60121 20.2225C8.02521 20.5105 7.64121 21.1345 7.64121 21.7585C7.64121 22.4305 8.02521 23.0545 8.60121 23.3425Z" />
</svg>
