<svg width="60" height="60" viewBox="0 0 60 60"  xmlns="http://www.w3.org/2000/svg">
<path d="M11.8326 26.248C11.8326 18.232 18.3606 11.752 26.3286 11.752C34.3446 11.752 40.8246 18.232 40.8246 26.248C40.8246 34.216 34.3446 40.744 26.3286 40.744C18.3606 40.744 11.8326 34.216 11.8326 26.248ZM51.1446 48.328L40.3446 37.48C42.8406 34.408 44.3286 30.52 44.3286 26.248C44.3286 16.312 36.2646 8.248 26.3286 8.248C16.4406 8.248 8.37656 16.312 8.37656 26.248C8.37656 36.136 16.4406 44.2 26.3286 44.2C30.7446 44.2 34.7766 42.616 37.8966 39.976L48.6966 50.824C49.0326 51.16 49.4646 51.352 49.9446 51.352C50.3766 51.352 50.8086 51.16 51.1446 50.824C51.8166 50.152 51.8166 49.048 51.1446 48.328Z" />
</svg>
