<svg width="60" height="60" viewBox="0 0 60 60"  xmlns="http://www.w3.org/2000/svg">
<path d="M31.6984 25.096H20.1784C19.2184 25.096 18.4504 25.864 18.4504 26.824C18.4504 27.784 19.2184 28.552 20.1784 28.552H31.6984C32.6584 28.552 33.4264 27.784 33.4264 26.824C33.4264 25.864 32.6584 25.096 31.6984 25.096ZM18.3544 34.744C13.9864 30.376 13.9864 23.272 18.3544 18.904C20.5624 16.696 23.4424 15.64 26.3224 15.64C29.1544 15.64 32.0344 16.696 34.2424 18.904C38.6104 23.272 38.6104 30.376 34.2424 34.744C29.8744 39.112 22.7704 39.112 18.3544 34.744ZM47.8744 45.928L37.8424 35.896C42.3544 30.136 41.9704 21.736 36.6904 16.456C30.9784 10.696 21.6664 10.744 15.9064 16.456C10.1944 22.168 10.1944 31.48 15.9064 37.192C18.7864 40.072 22.5304 41.512 26.3224 41.512C29.5384 41.512 32.7064 40.456 35.3944 38.344L45.4264 48.376C45.7624 48.712 46.1944 48.904 46.6264 48.904C47.1064 48.904 47.5384 48.712 47.8744 48.376C48.5464 47.704 48.5464 46.6 47.8744 45.928Z" />
</svg>
