<svg width="60" height="60" viewBox="0 0 60 60"  xmlns="http://www.w3.org/2000/svg">
<path d="M31.6988 24.376H27.6668V20.344C27.6668 19.384 26.8988 18.616 25.9388 18.616C24.9788 18.616 24.2108 19.384 24.2108 20.344V24.376H20.1788C19.2188 24.376 18.4508 25.144 18.4508 26.104C18.4508 27.064 19.2188 27.832 20.1788 27.832H24.2108V31.864C24.2108 32.824 24.9788 33.592 25.9388 33.592C26.8988 33.592 27.6668 32.824 27.6668 31.864V27.832H31.6988C32.6588 27.832 33.4268 27.064 33.4268 26.104C33.4268 25.144 32.6588 24.376 31.6988 24.376ZM18.3548 34.024C13.9868 29.656 13.9868 22.552 18.3548 18.184C20.4668 16.072 23.2988 14.872 26.2748 14.872C29.2988 14.872 32.0828 16.072 34.1948 18.184C36.3548 20.296 37.5068 23.128 37.5068 26.104C37.5068 29.08 36.3548 31.912 34.1948 34.024C32.0828 36.136 29.2988 37.288 26.2748 37.288C23.2988 37.288 20.4668 36.136 18.3548 34.024ZM47.8748 45.208L37.8428 35.176C39.8588 32.584 40.9628 29.416 40.9628 26.104C40.9628 22.168 39.4268 18.472 36.6908 15.736C33.9068 12.952 30.2108 11.416 26.2748 11.416C22.3868 11.416 18.6908 12.952 15.9068 15.736C10.1948 21.448 10.1948 30.76 15.9068 36.472C18.6908 39.256 22.3868 40.792 26.2748 40.792C29.6348 40.792 32.8028 39.688 35.3468 37.624L45.4268 47.656C45.7628 47.992 46.1948 48.184 46.6268 48.184C47.0588 48.184 47.5388 47.992 47.8748 47.656C48.5468 46.984 48.5468 45.88 47.8748 45.208Z" />
</svg>
