<svg width="60" height="60" viewBox="0 0 60 60"  xmlns="http://www.w3.org/2000/svg">
<path d="M49.1276 42.616C49.1276 43.192 48.6476 43.72 48.0236 43.72H12.0236C11.3996 43.72 10.8716 43.192 10.8716 42.616V16.936C10.8716 16.648 11.0156 16.408 11.2076 16.216C11.3996 16.024 11.6876 15.88 11.9756 15.88H48.0236C48.6476 15.88 49.1276 16.408 49.1276 16.984V42.616ZM48.0236 12.424H11.9756C10.7276 12.424 9.62363 12.904 8.75963 13.72C7.89563 14.584 7.41563 15.736 7.41563 16.936V42.616C7.41563 45.112 9.47963 47.176 12.0236 47.176H48.0236C50.5676 47.176 52.5836 45.112 52.5836 42.616V16.984C52.5836 14.488 50.5196 12.424 48.0236 12.424ZM30.0236 36.76C26.1836 36.76 23.0636 33.64 23.0636 29.8C23.0636 25.96 26.1836 22.84 30.0236 22.84C33.8636 22.84 36.9836 25.96 36.9836 29.8C36.9836 33.64 33.8636 36.76 30.0236 36.76ZM30.0236 19.384C24.2636 19.384 19.5596 24.04 19.5596 29.8C19.5596 35.56 24.2636 40.216 30.0236 40.216C35.7836 40.216 40.4396 35.56 40.4396 29.8C40.4396 24.04 35.7836 19.384 30.0236 19.384Z" />
</svg>
