<svg width="60" height="60" viewBox="0 0 60 60"  xmlns="http://www.w3.org/2000/svg">
<path d="M38.7116 29.8C38.7116 34.6 34.8236 38.488 30.0236 38.488C25.2236 38.488 21.3356 34.6 21.3356 29.8C21.3356 25 25.2236 21.112 30.0236 21.112C34.8236 21.112 38.7116 25 38.7116 29.8ZM48.0236 12.424H11.9756C10.7276 12.424 9.62363 12.904 8.75963 13.72C7.89563 14.584 7.41563 15.736 7.41563 16.936V42.616C7.41563 45.112 9.47963 47.176 12.0236 47.176H48.0236C50.5676 47.176 52.5836 45.112 52.5836 42.616V17.032C52.5836 14.488 50.5196 12.424 48.0236 12.424Z" />
</svg>
