<svg width="60" height="60" viewBox="0 0 60 60"  xmlns="http://www.w3.org/2000/svg">
<path d="M49.1276 46.072C49.1276 46.648 48.6476 47.176 48.0236 47.176H12.0236C11.3996 47.176 10.8716 46.648 10.8716 46.072V18.664C10.8716 18.376 11.0156 18.136 11.2076 17.896C11.3996 17.704 11.6876 17.608 11.9756 17.608H19.4636C19.5116 17.608 19.5116 17.608 19.5116 17.608C21.1436 17.608 22.6796 16.696 23.3996 15.208L24.5516 12.856C24.6956 12.568 24.9836 12.376 25.3196 12.376H34.7276C35.0156 12.376 35.3036 12.568 35.4956 12.808L37.0796 15.496C37.8956 16.792 39.2876 17.608 40.8236 17.608H48.0236C48.6476 17.608 49.1276 18.088 49.1276 18.712V46.072ZM48.0236 14.152H40.8236C40.4876 14.152 40.2476 13.96 40.0556 13.72L38.4716 11.032C37.6556 9.736 36.2636 8.92 34.7276 8.92H25.3196C23.6876 8.92 22.1996 9.832 21.4316 11.32L20.2796 13.672C20.1356 13.96 19.8476 14.152 19.5116 14.152H11.9756C10.7276 14.152 9.62363 14.584 8.75963 15.448C7.89563 16.312 7.41563 17.464 7.41563 18.664V46.072C7.41563 48.568 9.47963 50.68 12.0236 50.68H48.0236C50.5676 50.68 52.5836 48.568 52.5836 46.072V18.712C52.5836 16.216 50.5196 14.152 48.0236 14.152ZM30.0236 38.488C26.1836 38.488 23.0636 35.368 23.0636 31.528C23.0636 27.688 26.1836 24.568 30.0236 24.568C33.8636 24.568 36.9836 27.688 36.9836 31.528C36.9836 35.368 33.8636 38.488 30.0236 38.488ZM30.0236 21.064C24.2636 21.064 19.5596 25.768 19.5596 31.528C19.5596 37.288 24.2636 41.944 30.0236 41.944C35.7836 41.944 40.4396 37.288 40.4396 31.528C40.4396 25.768 35.7836 21.064 30.0236 21.064Z" />
</svg>
