<svg width="60" height="60" viewBox="0 0 60 60"  xmlns="http://www.w3.org/2000/svg">
<path d="M38.7116 31.528C38.7116 36.328 34.8236 40.216 30.0236 40.216C25.2236 40.216 21.3356 36.328 21.3356 31.528C21.3356 26.728 25.2236 22.84 30.0236 22.84C34.8236 22.84 38.7116 26.728 38.7116 31.528ZM48.0236 14.152H40.8236C40.4876 14.152 40.2476 13.96 40.0556 13.72L38.4716 11.032C37.6556 9.736 36.2636 8.92 34.7276 8.92H25.3196C23.6876 8.92 22.1996 9.832 21.4316 11.32L20.2796 13.672C20.1356 13.96 19.7516 14.104 19.5116 14.152H11.9756C10.7276 14.152 9.62363 14.584 8.75963 15.448C7.89563 16.312 7.41563 17.464 7.41563 18.664V46.072C7.41563 48.568 9.47963 50.68 12.0236 50.68H48.0236C50.5676 50.68 52.5836 48.568 52.5836 46.072V18.712C52.5836 16.216 50.5196 14.152 48.0236 14.152Z" />
</svg>
