<svg width="60" height="60" viewBox="0 0 60 60"  xmlns="http://www.w3.org/2000/svg">
<path d="M33.4796 35.032H19.5596C18.5996 35.032 17.8316 35.8 17.8316 36.76C17.8316 37.72 18.5996 38.488 19.5596 38.488H33.4796C34.4396 38.488 35.2076 37.72 35.2076 36.76C35.2076 35.8 34.4396 35.032 33.4796 35.032ZM47.8316 41.992H12.1676C11.4956 41.992 10.8716 41.416 10.8716 40.792V31.528H49.1276V40.792C49.1276 41.416 48.5516 41.992 47.8316 41.992ZM12.1676 17.656H47.8316C48.5516 17.656 49.1276 18.184 49.1276 18.856V24.568H10.8716V18.856C10.8716 18.184 11.4956 17.656 12.1676 17.656ZM47.8316 14.152H12.1676C9.57563 14.152 7.41563 16.264 7.41563 18.856V40.792C7.41563 43.336 9.57563 45.448 12.1676 45.448H47.8316C50.4716 45.448 52.5836 43.336 52.5836 40.792V18.856C52.5836 16.264 50.4716 14.152 47.8316 14.152Z" />
</svg>
