<svg width="60" height="60" viewBox="0 0 60 60"  xmlns="http://www.w3.org/2000/svg">
<path d="M31.038 36.808H29.31C28.35 36.808 27.582 37.576 27.582 38.536C27.582 39.496 28.35 40.264 29.31 40.264H31.038C31.998 40.264 32.766 39.496 32.766 38.536C32.766 37.576 31.998 36.808 31.038 36.808ZM49.134 36.808H47.742C46.782 36.808 46.014 37.576 46.014 38.536C46.014 39.496 46.782 40.264 47.742 40.264H49.134C50.094 40.264 50.862 39.496 50.862 38.536C50.862 37.576 50.094 36.808 49.134 36.808ZM21.822 36.808H20.094C19.134 36.808 18.366 37.576 18.366 38.536C18.366 39.496 19.134 40.264 20.094 40.264H21.822C22.782 40.264 23.598 39.496 23.598 38.536C23.598 37.576 22.782 36.808 21.822 36.808ZM40.254 36.808H38.526C37.566 36.808 36.798 37.576 36.798 38.536C36.798 39.496 37.566 40.264 38.526 40.264H40.254C41.214 40.264 41.982 39.496 41.982 38.536C41.982 37.576 41.214 36.808 40.254 36.808ZM12.606 36.808H10.878C9.918 36.808 9.15 37.576 9.15 38.536C9.15 39.496 9.918 40.264 10.878 40.264H12.606C13.566 40.264 14.382 39.496 14.382 38.536C14.382 37.576 13.566 36.808 12.606 36.808ZM19.566 29.848C19.566 28.888 18.798 28.12 17.838 28.12H10.878C9.918 28.12 9.15 28.888 9.15 29.848C9.15 30.808 9.918 31.576 10.878 31.576H17.838C18.798 31.576 19.566 30.808 19.566 29.848ZM49.134 28.12H42.174C41.214 28.12 40.446 28.888 40.446 29.848C40.446 30.808 41.214 31.576 42.174 31.576H49.134C50.094 31.576 50.862 30.808 50.862 29.848C50.862 28.888 50.094 28.12 49.134 28.12ZM33.486 28.12H26.526C25.566 28.12 24.798 28.888 24.798 29.848C24.798 30.808 25.566 31.576 26.526 31.576H33.486C34.446 31.576 35.214 30.808 35.214 29.848C35.214 28.888 34.446 28.12 33.486 28.12ZM10.878 22.888H49.134C50.094 22.888 50.862 22.12 50.862 21.16C50.862 20.2 50.094 19.384 49.134 19.384H10.878C9.918 19.384 9.15 20.2 9.15 21.16C9.15 22.12 9.918 22.888 10.878 22.888Z" />
</svg>
