<svg width="60" height="60" viewBox="0 0 60 60"  xmlns="http://www.w3.org/2000/svg">
<path d="M21.7569 32.776L29.9649 16.312L38.2209 32.776H21.7569ZM48.9249 46.408L31.5489 11.608C31.5009 11.56 31.4529 11.512 31.4049 11.464C31.3569 11.368 31.2609 11.272 31.2129 11.176C31.1169 11.128 31.0209 11.032 30.9249 10.984C30.8769 10.936 30.8289 10.888 30.7809 10.84C30.7329 10.84 30.6849 10.84 30.6369 10.84C30.5409 10.792 30.4449 10.744 30.3009 10.744C30.2049 10.696 30.1089 10.696 29.9649 10.696C29.8689 10.696 29.7729 10.696 29.6769 10.744C29.5329 10.744 29.4369 10.792 29.3409 10.84C29.2929 10.84 29.2449 10.84 29.1969 10.84C29.1489 10.888 29.1009 10.936 29.0529 10.984C28.9569 11.032 28.8609 11.128 28.7649 11.176C28.6689 11.272 28.6209 11.368 28.5729 11.464C28.5249 11.512 28.4769 11.56 28.4289 11.608L11.0529 46.408C10.6209 47.224 10.9569 48.28 11.8209 48.712C12.0609 48.856 12.3489 48.904 12.5889 48.904C13.2609 48.904 13.8369 48.568 14.1729 47.944L19.9809 36.28H39.9489L45.8049 47.944C46.0929 48.568 46.7169 48.904 47.3889 48.904C47.6289 48.904 47.8689 48.856 48.1569 48.712C49.0209 48.28 49.3569 47.224 48.9249 46.408Z" />
</svg>
