<svg width="60" height="60" viewBox="0 0 60 60"  xmlns="http://www.w3.org/2000/svg">
<path d="M24.9113 30.952L29.9993 20.776L35.0873 30.952H24.9113ZM47.2793 43.288L32.3993 13.528V13.48C32.3513 13.384 32.3033 13.288 32.2073 13.24C32.1593 13.144 32.1593 13.096 32.1113 13C32.0153 12.952 31.9673 12.904 31.9193 12.856C31.8233 12.76 31.7753 12.712 31.7273 12.664C31.6313 12.616 31.5833 12.568 31.5353 12.52C31.4393 12.472 31.3433 12.376 31.2473 12.328C31.2473 12.328 31.2473 12.328 31.1993 12.328C31.1513 12.28 31.1033 12.28 31.0553 12.232C30.9593 12.232 30.8633 12.184 30.7673 12.136C30.7193 12.136 30.6233 12.088 30.5273 12.088C30.4313 12.088 30.3353 12.04 30.2873 12.04C30.1913 12.04 30.0953 12.04 29.9993 12.04C29.9033 12.04 29.8073 12.04 29.7593 12.04C29.6633 12.04 29.5673 12.088 29.4713 12.088C29.3753 12.088 29.3273 12.136 29.2313 12.136C29.1353 12.184 29.0393 12.232 28.9433 12.232C28.8953 12.28 28.8473 12.28 28.7993 12.328C28.7513 12.328 28.7513 12.328 28.7513 12.328C28.6553 12.376 28.5593 12.472 28.4633 12.52C28.4153 12.568 28.3673 12.616 28.2713 12.664C28.2233 12.712 28.1753 12.76 28.0793 12.856C28.0313 12.904 27.9833 12.952 27.9353 13C27.8873 13.096 27.8393 13.144 27.7913 13.24C27.7433 13.288 27.6473 13.384 27.5993 13.48V13.528L12.7193 43.288C12.0473 44.584 12.5753 46.216 13.9193 46.888C15.2633 47.56 16.8953 47.032 17.5673 45.688L22.2233 36.376H37.7753L42.4313 45.688C43.1033 47.032 44.7353 47.56 46.0793 46.888C47.4233 46.216 47.9513 44.584 47.2793 43.288Z" />
</svg>
