<svg width="60" height="60" viewBox="0 0 60 60"  xmlns="http://www.w3.org/2000/svg">
<path d="M41.9048 43.96H33.9848C32.7368 43.96 31.7288 42.952 31.7288 41.704V17.896C31.7288 16.696 32.7368 15.688 33.9848 15.688H41.9048C42.8648 15.688 43.6328 14.92 43.6328 13.96C43.6328 13 42.8648 12.184 41.9048 12.184H33.9848C32.4488 12.184 31.0568 12.808 30.0008 13.816C28.9928 12.808 27.6008 12.184 26.0648 12.184H18.0968C17.1367 12.184 16.3688 13 16.3688 13.96C16.3688 14.92 17.1367 15.688 18.0968 15.688H26.0648C27.2648 15.688 28.2728 16.696 28.2728 17.896V41.704C28.2728 42.952 27.2648 43.96 26.0648 43.96H18.0968C17.1367 43.96 16.3688 44.728 16.3688 45.688C16.3688 46.648 17.1367 47.416 18.0968 47.416H26.0648C27.6008 47.416 28.9928 46.792 30.0008 45.784C31.0568 46.792 32.4488 47.416 33.9848 47.416H41.9048C42.8648 47.416 43.6328 46.648 43.6328 45.688C43.6328 44.728 42.8648 43.96 41.9048 43.96Z" />
</svg>
