<svg width="60" height="60" viewBox="0 0 60 60"  xmlns="http://www.w3.org/2000/svg">
<path d="M11.7452 18.52H48.2732C49.2332 18.52 50.0012 17.752 50.0012 16.792C50.0012 15.832 49.2332 15.016 48.2732 15.016H11.7452C10.7852 15.016 10.0172 15.832 10.0172 16.792C10.0172 17.752 10.7852 18.52 11.7452 18.52ZM16.9772 23.704C16.0172 23.704 15.2492 24.52 15.2492 25.48C15.2492 26.44 16.0172 27.208 16.9772 27.208H44.7692C45.7292 27.208 46.4972 26.44 46.4972 25.48C46.4972 24.52 45.7292 23.704 44.7692 23.704H16.9772ZM48.2732 32.44H11.7452C10.7852 32.44 10.0172 33.208 10.0172 34.168C10.0172 35.128 10.7852 35.896 11.7452 35.896H48.2732C49.2332 35.896 50.0012 35.128 50.0012 34.168C50.0012 33.208 49.2332 32.44 48.2732 32.44ZM44.7692 41.128H16.9772C16.0172 41.128 15.2492 41.896 15.2492 42.856C15.2492 43.816 16.0172 44.584 16.9772 44.584H44.7692C45.7292 44.584 46.4972 43.816 46.4972 42.856C46.4972 41.896 45.7292 41.128 44.7692 41.128Z" />
</svg>
