<svg width="60" height="60" viewBox="0 0 60 60"  xmlns="http://www.w3.org/2000/svg">
<path d="M11.7452 18.52H48.2732C49.2332 18.52 50.0012 17.752 50.0012 16.792C50.0012 15.832 49.2332 15.016 48.2732 15.016H11.7452C10.7852 15.016 10.0172 15.832 10.0172 16.792C10.0172 17.752 10.7852 18.52 11.7452 18.52ZM48.2732 23.704H11.7452C10.7852 23.704 10.0172 24.52 10.0172 25.48C10.0172 26.44 10.7852 27.208 11.7452 27.208H48.2732C49.2332 27.208 50.0012 26.44 50.0012 25.48C50.0012 24.52 49.2332 23.704 48.2732 23.704ZM48.2732 32.44H11.7452C10.7852 32.44 10.0172 33.208 10.0172 34.168C10.0172 35.128 10.7852 35.896 11.7452 35.896H48.2732C49.2332 35.896 50.0012 35.128 50.0012 34.168C50.0012 33.208 49.2332 32.44 48.2732 32.44ZM48.2732 41.128H11.7452C10.7852 41.128 10.0172 41.896 10.0172 42.856C10.0172 43.816 10.7852 44.584 11.7452 44.584H48.2732C49.2332 44.584 50.0012 43.816 50.0012 42.856C50.0012 41.896 49.2332 41.128 48.2732 41.128Z" />
</svg>
