<svg width="60" height="60" viewBox="0 0 60 60"  xmlns="http://www.w3.org/2000/svg">
<path d="M47.4251 8.152H12.5771C10.2251 8.152 8.35313 10.024 8.35313 12.376V37.768C8.35313 40.072 10.2251 41.944 12.5771 41.944H17.6651C18.6251 41.944 19.3931 41.176 19.3931 40.216C19.3931 39.256 18.6251 38.488 17.6651 38.488H12.5771C12.1451 38.488 11.8091 38.152 11.8091 37.768V12.376C11.8091 11.944 12.1451 11.608 12.5771 11.608H47.4251C47.8571 11.608 48.1451 11.944 48.1451 12.376V37.768C48.1451 38.152 47.8571 38.488 47.4251 38.488H42.3371C41.3771 38.488 40.5611 39.256 40.5611 40.216C40.5611 41.176 41.3771 41.944 42.3371 41.944H47.4251C49.7771 41.944 51.6491 40.072 51.6491 37.768V12.376C51.6491 10.024 49.7771 8.152 47.4251 8.152ZM23.1851 25.048C23.1851 21.304 26.2571 18.28 30.0011 18.28C33.7451 18.28 36.7691 21.304 36.7691 25.048C36.7691 28.792 33.7451 31.864 30.0011 31.864C26.2571 31.864 23.1851 28.792 23.1851 25.048ZM40.2731 25.048C40.2731 19.384 35.6651 14.776 30.0011 14.776C24.3371 14.776 19.7291 19.384 19.7291 25.048C19.7291 30.088 23.3771 34.312 28.1771 35.176V45.496L25.4411 42.808C24.7691 42.136 23.6651 42.136 22.9931 42.808C22.3211 43.48 22.3211 44.584 22.9931 45.256L28.6571 50.92C28.8491 51.112 29.0411 51.208 29.2331 51.304C29.4731 51.4 29.6651 51.448 29.9051 51.448C30.1451 51.448 30.3371 51.4 30.5771 51.304C30.7691 51.208 30.9611 51.112 31.1051 50.968C31.1051 50.968 31.1051 50.968 31.1531 50.92L36.8171 45.256C37.4891 44.584 37.4891 43.48 36.8171 42.808C36.1451 42.136 35.0411 42.136 34.3691 42.808L31.6331 45.496V35.176C36.5291 34.408 40.2731 30.184 40.2731 25.048Z" />
</svg>
