<svg width="60" height="60" viewBox="0 0 60 60"  xmlns="http://www.w3.org/2000/svg">
<path d="M47.4251 17.656H42.3371C41.3771 17.656 40.6091 18.424 40.6091 19.384C40.6091 20.344 41.3771 21.112 42.3371 21.112H47.4251C47.8571 21.112 48.1931 21.448 48.1931 21.832V47.224C48.1931 47.656 47.8571 47.992 47.4251 47.992H12.5771C12.1451 47.992 11.8091 47.656 11.8091 47.224V21.832C11.8091 21.448 12.1451 21.112 12.5771 21.112H17.6651C18.6251 21.112 19.3931 20.344 19.3931 19.384C19.3931 18.424 18.6251 17.656 17.6651 17.656H12.5771C10.2251 17.656 8.35313 19.528 8.35313 21.832V47.224C8.35313 49.624 10.2251 51.496 12.5771 51.496H47.4251C49.7771 51.496 51.6491 49.624 51.6491 47.224V21.832C51.6491 19.528 49.7771 17.656 47.4251 17.656ZM36.7691 34.552C36.7691 38.296 33.7451 41.32 30.0011 41.32C26.2571 41.32 23.1851 38.296 23.1851 34.552C23.1851 30.808 26.2571 27.736 30.0011 27.736C33.7451 27.736 36.7691 30.808 36.7691 34.552ZM19.7291 34.552C19.7291 40.216 24.3371 44.824 30.0011 44.824C35.6651 44.824 40.2731 40.216 40.2731 34.552C40.2731 29.464 36.5291 25.192 31.6331 24.424V14.104L34.3691 16.792C34.7051 17.128 35.1371 17.32 35.5691 17.32C36.0011 17.32 36.4811 17.128 36.8171 16.792C37.4891 16.12 37.4891 15.016 36.8171 14.344L31.1531 8.68C30.9611 8.488 30.7691 8.392 30.5771 8.296C30.1451 8.104 29.6651 8.104 29.2331 8.296C29.0411 8.392 28.8491 8.488 28.6571 8.68L22.9931 14.344C22.3211 15.016 22.3211 16.12 22.9931 16.792C23.3291 17.128 23.7611 17.32 24.2411 17.32C24.6731 17.32 25.1051 17.128 25.4411 16.792L28.1771 14.104V24.424C23.3771 25.336 19.7291 29.512 19.7291 34.552Z" />
</svg>
