<svg width="60" height="60" viewBox="0 0 60 60"  xmlns="http://www.w3.org/2000/svg">
<path d="M29.1628 48.04L39.9628 37.192L48.2668 45.496V48.04H29.1628ZM11.7388 45.496L25.0348 32.248L32.5228 39.736L24.2188 48.04H11.7388V45.496ZM48.2668 11.512V40.6L41.2108 33.496C40.4908 32.824 39.4348 32.824 38.7148 33.496L34.9708 37.288L26.2828 28.552C25.5628 27.88 24.4588 27.88 23.7868 28.552L11.7388 40.6V11.512H48.2668ZM49.9948 8.056H10.0108C9.05081 8.056 8.28281 8.824 8.28281 9.784V49.816C8.28281 50.776 9.05081 51.544 10.0108 51.544H49.9948C50.9548 51.544 51.7228 50.776 51.7228 49.816V9.784C51.7228 8.824 50.9548 8.056 49.9948 8.056Z" />
</svg>
