<svg width="60" height="60" viewBox="0 0 60 60"  xmlns="http://www.w3.org/2000/svg">
<path d="M33.6748 17.128C33.6748 18.088 34.4428 18.856 35.4028 18.856H40.9228V24.376C40.9228 25.336 41.6908 26.104 42.6508 26.104C43.6108 26.104 44.3788 25.336 44.3788 24.376V18.856H49.8988C50.8588 18.856 51.6748 18.088 51.6748 17.128C51.6748 16.168 50.8588 15.352 49.8988 15.352H44.3788V9.88C44.3788 8.92 43.6108 8.104 42.6508 8.104C41.6908 8.104 40.9228 8.92 40.9228 9.88V15.352H35.4028C34.4428 15.352 33.6748 16.168 33.6748 17.128ZM31.6108 42.808L41.3068 33.112L48.2668 40.072V42.808H31.6108ZM43.0348 48.04H11.7388V16.744H13.5148V44.536C13.5148 45.496 14.2828 46.264 15.2428 46.264H43.0348V48.04ZM29.1148 27.88L35.3548 34.12L26.6668 42.808H16.9708V40.072L29.1148 27.88ZM49.9948 25.432C49.0348 25.432 48.2668 26.2 48.2668 27.16V35.128L42.5548 29.416C41.8348 28.744 40.7308 28.744 40.0588 29.416L37.8508 31.672L30.3628 24.184C29.6908 23.512 28.5868 23.512 27.9148 24.184L16.9708 35.128V11.512H32.6188C33.5788 11.512 34.3468 10.744 34.3468 9.784C34.3468 8.824 33.5788 8.056 32.6188 8.056H15.2428C14.2828 8.056 13.5148 8.824 13.5148 9.784V13.24H10.0108C9.05081 13.24 8.28281 14.056 8.28281 15.016V49.816C8.28281 50.776 9.05081 51.544 10.0108 51.544H44.7628C45.7228 51.544 46.5388 50.776 46.5388 49.816V46.264H49.9948C50.9548 46.264 51.7228 45.496 51.7228 44.536V27.16C51.7228 26.2 50.9548 25.432 49.9948 25.432Z" />
</svg>
