<svg width="60" height="60" viewBox="0 0 60 60"  xmlns="http://www.w3.org/2000/svg">
<path d="M31.6108 42.808L41.3068 33.112L48.2668 40.072V42.808H31.6108ZM43.0348 48.04H11.7388V16.744H13.5148V44.536C13.5148 45.496 14.2828 46.264 15.2428 46.264H43.0348V48.04ZM16.9708 42.808V40.072L29.1628 27.88L35.3548 34.12L26.6668 42.808H16.9708ZM16.9708 11.512H48.2668V35.128L42.5548 29.416C41.8348 28.744 40.7788 28.744 40.0588 29.416L37.8508 31.672L30.3628 24.184C29.6908 23.512 28.5868 23.512 27.9148 24.184L16.9708 35.128V11.512ZM49.9948 8.056H15.2428C14.2828 8.056 13.5148 8.824 13.5148 9.784V13.24H10.0108C9.05081 13.24 8.28281 14.056 8.28281 15.016V49.816C8.28281 50.776 9.05081 51.544 10.0108 51.544H44.7628C45.7228 51.544 46.5388 50.776 46.5388 49.816V46.264H49.9948C50.9548 46.264 51.7228 45.496 51.7228 44.536V9.784C51.7228 8.824 50.9548 8.056 49.9948 8.056Z" />
</svg>
