<svg width="60" height="60" viewBox="0 0 60 60"  xmlns="http://www.w3.org/2000/svg">
<path d="M18.3628 41.416C18.6988 41.752 19.1308 41.944 19.5628 41.944C20.0428 41.944 20.4748 41.752 20.8108 41.416L30.0268 32.248L39.1948 41.416C39.5308 41.752 40.0108 41.944 40.4428 41.944C40.8748 41.944 41.3068 41.752 41.6428 41.416C42.3628 40.744 42.3628 39.64 41.6428 38.968L32.4748 29.752L41.6428 20.584C42.3628 19.912 42.3628 18.808 41.6428 18.136C40.9708 17.416 39.8668 17.416 39.1948 18.136L30.0268 27.304L20.8108 18.136C20.1388 17.416 19.0348 17.416 18.3628 18.136C17.6908 18.808 17.6908 19.912 18.3628 20.584L27.5308 29.752L18.3628 38.968C17.6908 39.64 17.6908 40.744 18.3628 41.416ZM48.2668 48.04H11.7388V11.512H48.2668V48.04ZM49.9948 8.056H10.0108C9.05081 8.056 8.28281 8.824 8.28281 9.784V49.816C8.28281 50.776 9.05081 51.544 10.0108 51.544H49.9948C50.9548 51.544 51.7228 50.776 51.7228 49.816V9.784C51.7228 8.824 50.9548 8.056 49.9948 8.056Z" />
</svg>
