<svg width="60" height="60" viewBox="0 0 60 60"  xmlns="http://www.w3.org/2000/svg">
<path d="M22.6828 37.096C23.0188 37.432 23.4988 37.576 23.9308 37.576C24.3628 37.576 24.7948 37.432 25.1308 37.096L32.6188 29.608L40.0588 37.096C40.3948 37.432 40.8748 37.576 41.3068 37.576C41.7388 37.576 42.1708 37.432 42.5548 37.096C43.2268 36.424 43.2268 35.32 42.5548 34.648L35.0668 27.16L42.5548 19.72C43.2268 19.048 43.2268 17.944 42.5548 17.224C41.8348 16.552 40.7308 16.552 40.0588 17.224L32.6188 24.712L25.1308 17.224C24.4588 16.552 23.3548 16.552 22.6828 17.224C22.0108 17.944 22.0108 19.048 22.6828 19.72L30.1708 27.16L22.6828 34.648C22.0108 35.32 22.0108 36.424 22.6828 37.096ZM48.2668 42.808H16.9708V11.512H48.2668V42.808ZM43.0348 48.04H11.7388V16.744H13.5148V44.536C13.5148 45.496 14.2828 46.264 15.2428 46.264H43.0348V48.04ZM49.9948 8.056H15.2428C14.2828 8.056 13.5148 8.824 13.5148 9.784V13.24H10.0108C9.05081 13.24 8.28281 14.056 8.28281 15.016V49.816C8.28281 50.776 9.05081 51.544 10.0108 51.544H44.7628C45.7228 51.544 46.5388 50.776 46.5388 49.816V46.264H49.9948C50.9548 46.264 51.7228 45.496 51.7228 44.536V9.784C51.7228 8.824 50.9548 8.056 49.9948 8.056Z" />
</svg>
