<svg width="60" height="60" viewBox="0 0 60 60"  xmlns="http://www.w3.org/2000/svg">
<path d="M9.14363 28.216C10.1036 28.216 10.8716 27.448 10.8716 26.488V20.056C10.8716 19.096 10.1036 18.28 9.14363 18.28C8.18362 18.28 7.41563 19.096 7.41563 20.056V26.488C7.41563 27.448 8.18362 28.216 9.14363 28.216ZM9.14363 14.824C10.1036 14.824 10.8716 14.056 10.8716 13.096V11.512H12.2636C13.2236 11.512 14.0396 10.744 14.0396 9.784C14.0396 8.824 13.2236 8.056 12.2636 8.056H9.14363C8.18362 8.056 7.41563 8.824 7.41563 9.784V13.096C7.41563 14.056 8.18362 14.824 9.14363 14.824ZM10.8716 39.832V33.4C10.8716 32.44 10.1036 31.672 9.14363 31.672C8.18362 31.672 7.41563 32.44 7.41563 33.4V39.832C7.41563 40.792 8.18362 41.608 9.14363 41.608C10.1036 41.608 10.8716 40.792 10.8716 39.832ZM19.2236 11.512H25.6556C26.6156 11.512 27.3836 10.744 27.3836 9.784C27.3836 8.824 26.6156 8.056 25.6556 8.056H19.2236C18.2636 8.056 17.4956 8.824 17.4956 9.784C17.4956 10.744 18.2636 11.512 19.2236 11.512ZM32.6156 11.512H39.0476C40.0076 11.512 40.7756 10.744 40.7756 9.784C40.7756 8.824 40.0076 8.056 39.0476 8.056H32.6156C31.6556 8.056 30.8876 8.824 30.8876 9.784C30.8876 10.744 31.6556 11.512 32.6156 11.512ZM49.1276 48.04H17.8316V16.744H49.1276V48.04ZM50.8556 13.24H47.3996V10.12C47.3996 9.16 46.6316 8.392 45.6716 8.392C44.7116 8.392 43.8956 9.16 43.8956 10.12V13.24H16.1036C15.1436 13.24 14.3756 14.056 14.3756 15.016V44.536H9.67163C8.71163 44.536 7.94363 45.304 7.94363 46.264C7.94363 47.224 8.71163 48.04 9.67163 48.04H14.3756V49.816C14.3756 50.776 15.1436 51.544 16.1036 51.544H50.8556C51.8156 51.544 52.5836 50.776 52.5836 49.816V15.016C52.5836 14.056 51.8156 13.24 50.8556 13.24Z" />
</svg>
