<svg width="60" height="60" viewBox="0 0 60 60"  xmlns="http://www.w3.org/2000/svg">
<path d="M50.8894 35.656C49.9294 35.656 49.1134 36.424 49.1134 37.384V47.704C49.1134 48.376 48.5374 48.904 47.8174 48.904H12.2494C11.4814 48.904 10.9054 48.376 10.9054 47.704V37.384C10.9054 36.424 10.1374 35.656 9.17738 35.656C8.21738 35.656 7.40138 36.424 7.40138 37.384V47.704C7.40138 50.296 9.56138 52.36 12.2494 52.36H47.8174C50.4574 52.36 52.6174 50.296 52.6174 47.704V37.384C52.6174 36.424 51.8494 35.656 50.8894 35.656ZM9.17738 27.736C9.56138 27.736 9.94537 27.592 10.2814 27.352L30.0094 11.176L49.7854 27.352C50.0734 27.592 50.5054 27.736 50.8894 27.736C51.3694 27.736 51.8974 27.496 52.2334 27.112C52.8094 26.344 52.7134 25.24 51.9934 24.664L31.1134 7.576C31.0654 7.528 31.0174 7.528 30.9694 7.528C30.8734 7.432 30.7774 7.384 30.6334 7.336C30.5374 7.288 30.4414 7.288 30.3454 7.24C30.2494 7.24 30.1534 7.24 30.0094 7.24C29.9134 7.24 29.8174 7.24 29.6734 7.24C29.5774 7.288 29.4814 7.288 29.3854 7.336C29.2894 7.384 29.1934 7.432 29.0494 7.528C29.0014 7.528 28.9534 7.528 28.9054 7.576L8.07338 24.664C7.30538 25.24 7.20938 26.344 7.83338 27.112C8.16938 27.496 8.64938 27.736 9.17738 27.736Z" />
</svg>
