<svg width="60" height="60" viewBox="0 0 60 60"  xmlns="http://www.w3.org/2000/svg">
<path d="M30.0236 28.024C25.2236 28.024 21.3356 24.136 21.3356 19.336C21.3356 14.536 25.2236 10.648 30.0236 10.648C34.8236 10.648 38.7116 14.536 38.7116 19.336C38.7116 24.136 34.8236 28.024 30.0236 28.024ZM37.1276 29.176C40.1996 26.968 42.1676 23.368 42.1676 19.336C42.1676 12.616 36.6956 7.192 30.0236 7.192C23.3036 7.192 17.8316 12.616 17.8316 19.336C17.8316 23.368 19.8476 26.968 22.9196 29.176C13.8956 32.2 7.41563 40.648 7.41563 50.68C7.41563 51.64 8.18362 52.408 9.14363 52.408C10.1036 52.408 10.8716 51.64 10.8716 50.68C10.8716 40.072 19.4636 31.528 30.0236 31.528C40.5356 31.528 49.1276 40.072 49.1276 50.68C49.1276 51.64 49.8956 52.408 50.8556 52.408C51.8156 52.408 52.5836 51.64 52.5836 50.68C52.5836 40.648 46.1036 32.2 37.1276 29.176Z" />
</svg>
