<svg width="60" height="60" viewBox="0 0 60 60"  xmlns="http://www.w3.org/2000/svg">
<path d="M43.5495 27.16C42.1095 27.16 40.9575 28.36 40.9575 29.8C40.9575 31.24 42.1095 32.392 43.5495 32.392C44.9895 32.392 46.1415 31.24 46.1415 29.8C46.1415 28.36 44.9895 27.16 43.5495 27.16ZM30.0135 27.16C28.5735 27.16 27.3735 28.36 27.3735 29.8C27.3735 31.24 28.5735 32.392 30.0135 32.392C31.4535 32.392 32.6055 31.24 32.6055 29.8C32.6055 28.36 31.4535 27.16 30.0135 27.16ZM16.4295 27.16C14.9895 27.16 13.8375 28.36 13.8375 29.8C13.8375 31.24 14.9895 32.392 16.4295 32.392C17.8695 32.392 19.0695 31.24 19.0695 29.8C19.0695 28.36 17.8695 27.16 16.4295 27.16Z" />
</svg>
