<svg width="60" height="60" viewBox="0 0 60 60"  xmlns="http://www.w3.org/2000/svg">
<path d="M32.6164 43.336C32.6164 41.896 31.4164 40.696 29.9764 40.696C28.5364 40.696 27.3844 41.896 27.3844 43.336C27.3844 44.776 28.5364 45.928 29.9764 45.928C31.4164 45.928 32.6164 44.776 32.6164 43.336ZM32.6164 29.752C32.6164 28.312 31.4164 27.16 29.9764 27.16C28.5364 27.16 27.3844 28.312 27.3844 29.752C27.3844 31.192 28.5364 32.392 29.9764 32.392C31.4164 32.392 32.6164 31.192 32.6164 29.752ZM32.6164 16.216C32.6164 14.776 31.4164 13.624 29.9764 13.624C28.5364 13.624 27.3844 14.776 27.3844 16.216C27.3844 17.656 28.5364 18.808 29.9764 18.808C31.4164 18.808 32.6164 17.656 32.6164 16.216Z" />
</svg>
