<svg width="60" height="60" viewBox="0 0 60 60"  xmlns="http://www.w3.org/2000/svg">
<path d="M36.8171 28.072C35.8571 28.072 35.0891 28.84 35.0891 29.8C35.0891 32.584 32.7851 34.84 30.0011 34.84C27.2171 34.84 24.9611 32.584 24.9611 29.8C24.9611 27.016 27.2171 24.76 30.0011 24.76C30.9611 24.76 31.7291 23.944 31.7291 22.984C31.7291 22.024 30.9611 21.256 30.0011 21.256C25.2971 21.256 21.5051 25.096 21.5051 29.8C21.5051 34.504 25.2971 38.344 30.0011 38.344C34.7051 38.344 38.5451 34.504 38.5451 29.8C38.5451 28.84 37.7771 28.072 36.8171 28.072ZM48.0011 30.52C45.7931 33.88 39.5531 41.656 30.0011 41.656C20.4971 41.656 14.2571 33.88 12.0011 30.52C11.8091 30.184 11.8091 29.752 12.0011 29.416C14.2571 25.96 20.4971 17.944 30.0011 17.944C39.5531 17.944 45.7931 25.96 48.0011 29.416C48.2411 29.752 48.2411 30.184 48.0011 30.52ZM50.9291 27.544C48.3851 23.608 41.2811 14.488 30.0011 14.488C18.7691 14.488 11.6171 23.608 9.07313 27.496C8.11313 29.032 8.11313 30.952 9.12112 32.44C11.6651 36.28 18.8171 45.112 30.0011 45.112C41.2331 45.112 48.3371 36.232 50.8811 32.44C51.8891 30.952 51.8891 29.032 50.9291 27.544Z" />
</svg>
