<svg width="60" height="60" viewBox="0 0 60 60"  xmlns="http://www.w3.org/2000/svg">
<path d="M48.0011 30.616C45.7931 33.976 39.5531 41.752 30.0011 41.752C27.1691 41.752 24.6251 41.032 22.3691 39.976L25.3451 37C26.6891 37.912 28.2731 38.392 30.0011 38.392C34.7051 38.392 38.5451 34.6 38.5451 29.896C38.5451 28.936 37.7771 28.168 36.8171 28.168C35.8571 28.168 35.0891 28.936 35.0891 29.896C35.0891 32.68 32.7851 34.936 30.0011 34.936C29.2331 34.936 28.5611 34.744 27.8891 34.456L40.7051 21.688C44.3051 24.232 46.7531 27.592 48.0011 29.512C48.2411 29.848 48.2411 30.28 48.0011 30.616ZM12.0011 30.616C11.8091 30.28 11.8091 29.848 12.0011 29.512C14.2571 26.056 20.4971 18.04 30.0011 18.04C32.8331 18.04 35.3771 18.76 37.5851 19.816L25.4411 32.008C25.1531 31.336 24.9611 30.664 24.9611 29.896C24.9611 27.112 27.2171 24.856 30.0011 24.856C30.9611 24.856 31.7291 24.04 31.7291 23.08C31.7291 22.12 30.9611 21.352 30.0011 21.352C25.2971 21.352 21.5051 25.192 21.5051 29.896C21.5051 31.624 21.9851 33.208 22.8971 34.552L19.2971 38.152C15.6971 35.656 13.2491 32.488 12.0011 30.616ZM50.9291 27.64C49.5851 25.576 46.9931 22.072 43.1531 19.192L45.5051 16.84C46.1771 16.168 46.1771 15.064 45.5051 14.392C44.8331 13.72 43.7291 13.72 43.0571 14.392L40.1771 17.272C37.2971 15.688 33.8891 14.584 30.0011 14.584C18.7691 14.584 11.6171 23.704 9.07313 27.592C8.11313 29.128 8.11313 31.048 9.12112 32.536C10.4651 34.552 13.0571 37.912 16.8011 40.648L14.5451 42.904C13.8251 43.576 13.8251 44.68 14.5451 45.352C14.8811 45.688 15.3131 45.88 15.7451 45.88C16.1771 45.88 16.6571 45.688 16.9931 45.352L19.8251 42.568C22.7051 44.104 26.1131 45.208 30.0011 45.208C41.2331 45.208 48.3371 36.328 50.8811 32.536C51.8891 31.048 51.8891 29.128 50.9291 27.64Z" />
</svg>
