<svg width="60" height="60" viewBox="0 0 60 60"  xmlns="http://www.w3.org/2000/svg">
<path d="M48.0011 30.52C45.9371 33.64 40.3211 40.696 31.7291 41.56V38.152C35.6171 37.336 38.5451 33.928 38.5451 29.8C38.5451 28.84 37.7771 28.072 36.8171 28.072C35.8571 28.072 35.0891 28.84 35.0891 29.8C35.0891 31.96 33.6971 33.832 31.7291 34.552V18.04C40.3211 18.952 45.9371 26.2 48.0011 29.416C48.2411 29.752 48.2411 30.184 48.0011 30.52ZM12.0011 30.52C11.8091 30.184 11.8091 29.752 12.0011 29.416C14.1131 26.2 19.7291 18.952 28.2731 18.04V21.448C24.3851 22.264 21.5051 25.672 21.5051 29.8C21.5051 33.928 24.3851 37.336 28.2731 38.152V41.56C19.7291 40.696 14.1131 33.688 12.0011 30.52ZM24.9611 29.8C24.9611 27.64 26.3531 25.768 28.2731 25.096V34.504C26.3531 33.832 24.9611 31.96 24.9611 29.8ZM50.9291 27.544C48.5291 23.8 42.0011 15.448 31.7291 14.584V9.88C31.7291 8.92 30.9611 8.152 30.0011 8.152C29.0411 8.152 28.2731 8.92 28.2731 9.88V14.584C18.0491 15.448 11.5211 23.8 9.07313 27.544C8.11313 29.032 8.11313 31 9.12112 32.488C11.5211 36.088 18.0491 44.2 28.2731 45.016V49.72C28.2731 50.68 29.0411 51.448 30.0011 51.448C30.9611 51.448 31.7291 50.68 31.7291 49.72V45.016C41.9531 44.2 48.4811 36.04 50.8811 32.44C51.8891 30.952 51.8891 29.032 50.9291 27.544Z" />
</svg>
