<svg width="60" height="60" viewBox="0 0 60 60"  xmlns="http://www.w3.org/2000/svg">
<path d="M35.3057 14.872C35.3057 14.872 35.3057 14.872 35.2577 14.872L26.5697 14.824L18.7457 14.728V10.888C18.7457 10.552 18.6017 10.264 18.3137 10.12C18.0257 9.928 17.6897 9.976 17.4017 10.12L8.71369 15.88C8.47369 16.024 8.32969 16.312 8.32969 16.6C8.32969 16.888 8.47369 17.176 8.71369 17.32L17.4017 23.08C17.5457 23.176 17.7377 23.224 17.8817 23.224C18.0257 23.224 18.1697 23.176 18.3137 23.08C18.6017 22.936 18.7457 22.648 18.7457 22.36V18.232L26.5697 18.28L35.2577 18.328C42.4097 18.328 48.1697 24.568 48.1697 32.248C48.1697 39.928 42.4097 46.168 35.2577 46.168H19.6097C18.6497 46.168 17.8817 46.936 17.8817 47.896C17.8817 48.856 18.6497 49.672 19.6097 49.672H35.2577C44.3297 49.672 51.6737 41.848 51.6737 32.248C51.6737 22.648 44.3297 14.872 35.3057 14.872Z" />
</svg>
