<svg width="60" height="60" viewBox="0 0 60 60"  xmlns="http://www.w3.org/2000/svg">
<path d="M38.6529 15.208C36.3009 14.008 33.6609 13.288 30.8289 13.144V9.112C30.8289 8.776 30.6849 8.488 30.3969 8.344C30.1089 8.2 29.7729 8.2 29.4849 8.392L20.7969 14.152C20.5569 14.296 20.4129 14.584 20.4129 14.872C20.4129 15.16 20.5569 15.4 20.7969 15.592L29.4849 21.304C29.6289 21.4 29.8209 21.448 29.9649 21.448C30.1089 21.448 30.2529 21.4 30.3969 21.352C30.6849 21.208 30.8289 20.92 30.8289 20.584V16.648C33.7089 16.792 36.3969 17.704 38.6529 19.24C42.8769 22.024 45.6129 26.824 45.6129 32.248C45.6129 40.84 38.6049 47.896 29.9649 47.896C21.3729 47.896 14.3169 40.84 14.3169 32.248C14.3169 31.288 13.5489 30.52 12.5889 30.52C11.6289 30.52 10.8609 31.288 10.8609 32.248C10.8609 42.76 19.4529 51.4 29.9649 51.4C40.5249 51.4 49.1169 42.76 49.1169 32.248C49.1169 24.808 44.8449 18.376 38.6529 15.208Z" />
</svg>
