<svg width="60" height="60" viewBox="0 0 60 60"  xmlns="http://www.w3.org/2000/svg">
<path d="M21.2769 15.208C15.0849 18.376 10.8609 24.808 10.8609 32.248C10.8609 42.76 19.4529 51.4 29.9649 51.4C40.5249 51.4 49.1169 42.76 49.1169 32.248C49.1169 31.288 48.3009 30.472 47.3409 30.472C46.3809 30.472 45.6129 31.288 45.6129 32.248C45.6129 40.84 38.6049 47.896 29.9649 47.896C21.3729 47.896 14.3169 40.84 14.3169 32.248C14.3169 26.824 17.1009 22.024 21.2769 19.24C23.5329 17.704 26.2209 16.792 29.1009 16.648V20.584C29.1009 20.92 29.2929 21.208 29.5809 21.352C29.6769 21.4 29.8209 21.448 29.9649 21.448C30.1569 21.448 30.3009 21.4 30.4449 21.304L39.1329 15.592C39.3729 15.4 39.5169 15.16 39.5169 14.872C39.5169 14.584 39.3729 14.296 39.1329 14.104L30.4449 8.392C30.2049 8.2 29.8689 8.2 29.5809 8.344C29.2929 8.488 29.1009 8.776 29.1009 9.112V13.144C26.3169 13.288 23.6769 14.008 21.2769 15.208Z" />
</svg>
