<svg width="60" height="60" viewBox="0 0 60 60"  xmlns="http://www.w3.org/2000/svg">
<path d="M30.9137 37.72C30.6737 37.528 30.3377 37.528 30.0497 37.672C29.7617 37.816 29.5697 38.104 29.5697 38.44V42.376C26.6897 42.232 24.0017 41.32 21.7457 39.784C18.3857 37.528 15.9377 34.024 15.1217 29.944C14.9297 28.888 14.7857 27.88 14.7857 26.776C14.7857 25.816 14.0177 25.048 13.0577 25.048C12.7217 25.048 12.4337 25.144 12.1937 25.336C11.6657 25.624 11.3297 26.152 11.3297 26.776C11.3297 34.216 15.5537 40.648 21.7457 43.816C24.1457 45.016 26.7857 45.736 29.5697 45.88V49.912C29.5697 50.248 29.7617 50.536 30.0497 50.68C30.1457 50.728 30.2897 50.776 30.4337 50.776C30.6257 50.776 30.7697 50.728 30.9137 50.632L39.6017 44.92C39.8417 44.728 39.9857 44.488 39.9857 44.152C39.9857 43.864 39.8417 43.624 39.6017 43.432L30.9137 37.72ZM38.2577 15.88C35.9057 14.632 33.2657 13.912 30.4337 13.816V9.736C30.4337 9.448 30.2897 9.16 30.0017 9.016C29.7137 8.824 29.3777 8.872 29.0897 9.016L20.4017 14.776C20.1617 14.92 20.0177 15.208 20.0177 15.496C20.0177 15.784 20.1617 16.072 20.4017 16.216L29.0897 21.976C29.2337 22.072 29.4257 22.12 29.5697 22.12C29.7137 22.12 29.8577 22.072 30.0017 21.976C30.2897 21.832 30.4337 21.544 30.4337 21.208V17.272C33.3137 17.416 36.0017 18.376 38.2577 19.864C41.6177 22.12 44.0657 25.672 44.8817 29.752C45.1217 30.76 45.2177 31.816 45.2177 32.872C45.2177 33.832 45.9857 34.6 46.9457 34.6C47.2817 34.6 47.5697 34.504 47.8097 34.36C48.3377 34.024 48.6737 33.496 48.6737 32.872C48.6737 25.48 44.4497 19.048 38.2577 15.88Z" />
</svg>
