<svg width="60" height="60" viewBox="0 0 60 60"  xmlns="http://www.w3.org/2000/svg">
<path d="M50.5129 28.12H12.1609L27.5689 12.232C28.2409 11.56 28.2409 10.456 27.5209 9.784C26.8489 9.112 25.7449 9.112 25.0729 9.832L9.23288 26.152C8.27288 27.16 7.79288 28.408 7.74488 29.704C7.74488 29.752 7.69688 29.8 7.69688 29.848C7.69688 29.896 7.69688 29.896 7.69688 29.896C7.69688 31.288 8.22488 32.68 9.23288 33.688L24.9289 49.96C25.2649 50.296 25.6969 50.488 26.1769 50.488C26.6089 50.488 27.0409 50.344 27.3769 50.008C28.0969 49.336 28.0969 48.184 27.4249 47.512L12.0169 31.624H50.5129C51.4729 31.624 52.2889 30.808 52.2889 29.848C52.2889 28.888 51.4729 28.12 50.5129 28.12Z" />
</svg>
