<svg width="60" height="60" viewBox="0 0 60 60"  xmlns="http://www.w3.org/2000/svg">
<path d="M9.42488 28.12C8.46487 28.12 7.69688 28.888 7.69688 29.848C7.69688 30.808 8.46487 31.624 9.42488 31.624H47.9689L32.5609 47.512C31.8889 48.184 31.8889 49.336 32.6089 50.008C32.9449 50.344 33.3769 50.488 33.8089 50.488C34.2409 50.488 34.7209 50.296 35.0569 49.96L50.7529 33.688C51.7609 32.68 52.2889 31.288 52.2409 29.896C52.2409 29.896 52.2889 29.896 52.2889 29.848C52.2889 29.8 52.2409 29.752 52.2409 29.704C52.1929 28.408 51.7129 27.16 50.7529 26.152L34.9129 9.832C34.2409 9.112 33.1369 9.112 32.4169 9.784C31.7449 10.456 31.7449 11.56 32.4169 12.232L47.8249 28.12H9.42488Z" />
</svg>
