<svg width="60" height="60" viewBox="0 0 60 60"  xmlns="http://www.w3.org/2000/svg">
<path d="M31.7513 9.256C31.7513 8.296 30.9833 7.48 30.0233 7.48C29.0633 7.48 28.2473 8.296 28.2473 9.256V47.752L12.3593 32.344C11.6873 31.672 10.5833 31.672 9.91125 32.392C9.57525 32.728 9.43125 33.16 9.43125 33.592C9.43125 34.072 9.62325 34.504 9.95925 34.84L26.1833 50.584C27.1913 51.592 28.5833 52.12 29.9753 52.12C29.9753 52.12 29.9753 52.12 30.0233 52.12C30.0713 52.12 30.1193 52.072 30.1673 52.072C31.4633 52.024 32.7113 51.544 33.7193 50.584L50.0393 34.696C50.7593 34.024 50.7593 32.92 50.0873 32.248C49.4153 31.528 48.3113 31.528 47.6393 32.2L31.7513 47.608V9.256Z" />
</svg>
