<svg width="60" height="60" viewBox="0 0 60 60"  xmlns="http://www.w3.org/2000/svg">
<path d="M28.2473 50.392C28.2473 51.352 29.0153 52.12 29.9753 52.12C30.9353 52.12 31.7513 51.352 31.7513 50.392V11.8L47.6393 27.208C48.3113 27.88 49.4153 27.88 50.0873 27.16C50.4233 26.824 50.5673 26.392 50.5673 25.96C50.5673 25.528 50.3753 25.048 50.0393 24.712L33.8633 9.016C32.8073 8.008 31.4153 7.48 30.0233 7.528C30.0233 7.528 30.0233 7.48 29.9753 7.48C29.9273 7.48 29.8793 7.528 29.8313 7.528C28.5833 7.576 27.2873 8.056 26.2793 9.016L9.95925 24.856C9.23925 25.528 9.23925 26.632 9.91125 27.352C10.5833 28.024 11.6873 28.024 12.3593 27.352L28.2473 11.944V50.392Z" />
</svg>
