<svg width="60" height="60" viewBox="0 0 60 60"  xmlns="http://www.w3.org/2000/svg">
<path d="M29.9276 36.712C26.0876 36.712 22.9676 33.592 22.9676 29.752C22.9676 25.96 26.0876 22.84 29.9276 22.84C33.7676 22.84 36.8876 25.96 36.8876 29.752C36.8876 33.592 33.7676 36.712 29.9276 36.712ZM29.9276 19.336C24.1676 19.336 19.5116 24.04 19.5116 29.752C19.5116 35.512 24.1676 40.216 29.9276 40.216C35.6876 40.216 40.3436 35.512 40.3436 29.752C40.3436 24.04 35.6876 19.336 29.9276 19.336ZM39.4316 46.168H20.5676L11.1596 29.752L20.5676 13.384H39.4316L48.8396 29.752L39.4316 46.168ZM52.3436 28.888L41.9276 10.792C41.5916 10.264 41.0636 9.928 40.4396 9.928H19.5596C18.9356 9.928 18.3596 10.264 18.0716 10.792L7.60763 28.888C7.31963 29.464 7.31963 30.088 7.60763 30.664L18.0716 48.76C18.3596 49.336 18.9356 49.672 19.5596 49.672H40.4396C41.0636 49.672 41.5916 49.336 41.9276 48.76L52.3436 30.664C52.6796 30.088 52.6796 29.464 52.3436 28.888Z" />
</svg>
