<svg width="60" height="60" viewBox="0 0 60 60"  xmlns="http://www.w3.org/2000/svg">
<path d="M28.7531 20.152C28.9451 20.296 29.0891 20.392 29.3291 20.488C29.5691 20.584 29.7611 20.632 30.0011 20.632C30.4331 20.632 30.9131 20.44 31.2491 20.152C31.3931 19.96 31.4891 19.768 31.5851 19.576C31.6811 19.336 31.7291 19.144 31.7291 18.904C31.7291 18.808 31.7291 18.664 31.6811 18.568C31.6811 18.424 31.6331 18.328 31.5851 18.232C31.5851 18.136 31.4891 18.04 31.4411 17.944C31.3931 17.848 31.2971 17.752 31.2491 17.656C30.7691 17.176 30.0011 17.032 29.3291 17.32C29.0891 17.368 28.9451 17.512 28.7531 17.656C28.7051 17.752 28.6091 17.848 28.5611 17.944C28.4651 18.04 28.4171 18.136 28.4171 18.232C28.3691 18.328 28.3211 18.424 28.2731 18.568C28.2731 18.664 28.2731 18.808 28.2731 18.904C28.2731 19.144 28.3211 19.336 28.4171 19.576C28.4651 19.768 28.6091 19.96 28.7531 20.152ZM30.0011 24.76C29.0411 24.76 28.2731 25.528 28.2731 26.488V39.736C28.2731 40.696 29.0411 41.512 30.0011 41.512C30.9611 41.512 31.7291 40.696 31.7291 39.736V26.488C31.7291 25.528 30.9611 24.76 30.0011 24.76ZM30.0011 47.992C19.9691 47.992 11.8091 39.832 11.8091 29.8C11.8091 19.768 19.9691 11.608 30.0011 11.608C40.0331 11.608 48.1931 19.768 48.1931 29.8C48.1931 39.832 40.0331 47.992 30.0011 47.992ZM30.0011 8.152C18.0491 8.152 8.35313 17.848 8.35313 29.8C8.35313 41.752 18.0491 51.448 30.0011 51.448C41.9531 51.448 51.6491 41.752 51.6491 29.8C51.6491 17.848 41.9531 8.152 30.0011 8.152Z" />
</svg>
