<svg width="60" height="60" viewBox="0 0 60 60"  xmlns="http://www.w3.org/2000/svg">
<path d="M45.2651 30.904L30.0011 46.168L14.7371 30.904C12.8651 29.032 11.8091 26.536 11.8091 23.848C11.8091 21.208 12.8651 18.712 14.7371 16.84C16.6571 14.92 19.2011 13.96 21.7451 13.96C24.2891 13.96 26.8331 14.92 28.7531 16.84C29.4731 17.512 30.5291 17.512 31.2491 16.84C33.1211 14.968 35.6171 13.96 38.2571 13.96C40.8971 13.96 43.3931 14.968 45.2651 16.84C49.1531 20.728 49.1531 27.016 45.2651 30.904ZM47.7131 14.392C45.1691 11.848 41.8091 10.456 38.2571 10.456C35.2331 10.456 32.3531 11.464 30.0011 13.288C24.7211 9.208 17.0891 9.544 12.2891 14.392C9.74513 16.936 8.35313 20.296 8.35313 23.848C8.35313 27.448 9.74513 30.808 12.2891 33.352L28.7531 49.864C29.0891 50.2 29.5691 50.392 30.0011 50.392C30.4331 50.392 30.9131 50.2 31.2491 49.864L47.7131 33.352C52.9451 28.12 52.9451 19.624 47.7131 14.392Z" />
</svg>
